<svg x="0px" y="0px" width="1600" height="1200" viewBox="230.39 180.31 1139.22 839.38" xmlns="http://www.w3.org/2000/svg" xmlns:svg="http://www.w3.org/2000/svg" class="gridItem__media" clip-rule="nonzero" display="block" fill-rule="nonzero" stroke-width="1px" version="1.1">
 <g class="layer">
  <title>Layer 1</title>
  <g id="svg_146" opacity="0.2" transform="matrix(1 0 0 1 0 0)">
   <path d="m768.04,649.37l-48.38,0l0,3.8l48.38,0l0,-3.8z" fill="rgb(255, 255, 255)" id="svg_147" opacity="0.2"/>
   <path d="m756.64,655.85l-36.98,0l0,3.8l36.98,0l0,-3.8z" fill="rgb(255, 255, 255)" id="svg_148" opacity="0.2"/>
   <path d="m763.88,662.32l-44.22,0l0,3.8l44.22,0l0,-3.8z" fill="rgb(255, 255, 255)" id="svg_149" opacity="0.2"/>
   <path d="m755.43,668.8l-35.77,0l0,3.8l35.77,0l0,-3.8z" fill="rgb(255, 255, 255)" id="svg_150" opacity="0.2"/>
   <path d="m771.63,675.27l-40.43,0l0,3.8l40.43,0l0,-3.8z" fill="rgb(255, 255, 255)" id="svg_151" opacity="0.2"/>
   <path d="m768.03,683.06l-36.83,0l0,3.8l36.83,0l0,-3.8z" fill="rgb(255, 255, 255)" id="svg_152" opacity="0.2"/>
   <path d="m756.64,689.54l-36.98,0l0,3.8l36.98,0l0,-3.8z" fill="rgb(255, 255, 255)" id="svg_153" opacity="0.2"/>
   <path d="m763.88,696.01l-44.22,0l0,3.8l44.22,0l0,-3.8z" fill="rgb(255, 255, 255)" id="svg_154" opacity="0.2"/>
   <path d="m755.43,702.48l-35.77,0l0,3.8l35.77,0l0,-3.8z" fill="rgb(255, 255, 255)" id="svg_155" opacity="0.2"/>
   <path d="m771.64,708.96l-51.98,0l0,3.8l51.98,0l0,-3.8z" fill="rgb(255, 255, 255)" id="svg_156" opacity="0.2"/>
   <path d="m779.74,716.38l-44.22,0l0,3.8l44.22,0l0,-3.8z" fill="rgb(255, 255, 255)" id="svg_157" opacity="0.2"/>
   <path d="m771.64,723.8l-51.98,0l0,3.8l51.98,0l0,-3.8z" fill="rgb(255, 255, 255)" id="svg_158" opacity="0.2"/>
  </g>
  <path d="m373.65,1019.69l-135.31,-233.22c-8.93,-11.25 -10.51,-28 -3.88,-41.19l189.12,-497.17c6.51,-13 18,-21.58 30.85,-23.1l547.1,-44.46c11.37,-1.34 22.7,3 31.18,11.89l327,385.63c9.14,9.6 12.3,24.72 8,38.12l-90.58,403.5l-903.48,0z" fill="rgb(244, 244, 244)" id="svg_1"/>
  <path class="change-color-in-svg" d="m475.11,874.5l-98.22,0c-0.37,0 -0.72,-0.15 -0.98,-0.41c-0.26,-0.26 -0.41,-0.61 -0.41,-0.98l0,-73.22c0,-0.37 0.15,-0.72 0.41,-0.98c0.26,-0.26 0.61,-0.41 0.98,-0.41l98.22,0c0.37,0 0.72,0.15 0.98,0.41c0.26,0.26 0.41,0.61 0.41,0.98l0,73.22c0,0.37 -0.15,0.72 -0.41,0.98c-0.26,0.26 -0.61,0.41 -0.98,0.41zm-98.22,-75c-0.1,0 -0.2,0.04 -0.27,0.12c-0.08,0.07 -0.12,0.17 -0.12,0.27l0,73.22c0,0.1 0.04,0.2 0.12,0.27c0.07,0.08 0.17,0.12 0.27,0.12l96.73,0c0.1,0 0.2,-0.04 0.27,-0.12c0.07,-0.07 0.11,-0.17 0.11,-0.27l0,-73.22c0,-0.1 -0.04,-0.2 -0.11,-0.27c-0.07,-0.08 -0.17,-0.12 -0.27,-0.12l-96.73,0z" fill="rgb(43, 131, 252)" id="svg_2"/>
  <path d="m475.11,874.5l-98.22,0c-0.37,0 -0.72,-0.15 -0.98,-0.41c-0.26,-0.26 -0.41,-0.61 -0.41,-0.98l0,-73.22c0,-0.37 0.15,-0.72 0.41,-0.98c0.26,-0.26 0.61,-0.41 0.98,-0.41l98.22,0c0.37,0 0.72,0.15 0.98,0.41c0.26,0.26 0.41,0.61 0.41,0.98l0,73.22c0,0.37 -0.15,0.72 -0.41,0.98c-0.26,0.26 -0.61,0.41 -0.98,0.41zm-98.22,-75c-0.1,0 -0.2,0.04 -0.27,0.12c-0.08,0.07 -0.12,0.17 -0.12,0.27l0,73.22c0,0.1 0.04,0.2 0.12,0.27c0.07,0.08 0.17,0.12 0.27,0.12l96.73,0c0.1,0 0.2,-0.04 0.27,-0.12c0.07,-0.07 0.11,-0.17 0.11,-0.27l0,-73.22c0,-0.1 -0.04,-0.2 -0.11,-0.27c-0.07,-0.08 -0.17,-0.12 -0.27,-0.12l-96.73,0z" fill="rgb(0, 0, 0)" id="svg_3" opacity="0.2"/>
  <path class="change-color-in-svg" d="m473.42,874.5l-96.53,0c-0.37,0 -0.72,-0.15 -0.98,-0.41c-0.26,-0.26 -0.41,-0.61 -0.41,-0.98l0,-73.22c0,-0.37 0.15,-0.72 0.41,-0.98c0.26,-0.26 0.61,-0.41 0.98,-0.41l96.53,0c0.37,0 0.72,0.15 0.98,0.41c0.26,0.26 0.41,0.61 0.41,0.98l0,73.22c0,0.37 -0.15,0.72 -0.41,0.98c-0.26,0.26 -0.61,0.41 -0.98,0.41l0,0zm-96.53,-75c-0.05,0 -0.1,0.01 -0.15,0.03c-0.05,0.02 -0.09,0.05 -0.13,0.08c-0.03,0.04 -0.06,0.08 -0.08,0.13c-0.02,0.05 -0.03,0.1 -0.03,0.15l0,73.22c0,0.05 0.01,0.1 0.03,0.15c0.02,0.05 0.05,0.09 0.08,0.13c0.04,0.03 0.08,0.06 0.13,0.08c0.05,0.02 0.1,0.03 0.15,0.03l96.53,0c0.1,0 0.2,-0.04 0.28,-0.11c0.07,-0.08 0.11,-0.18 0.11,-0.28l0,-73.22c0,-0.1 -0.04,-0.2 -0.11,-0.28c-0.08,-0.07 -0.18,-0.11 -0.28,-0.11l-96.53,0z" fill="rgb(43, 131, 252)" id="svg_4"/>
  <path class="change-color-in-svg" d="m473.32,810l-96.43,0l0,1l96.43,0l0,-1z" fill="rgb(43, 131, 252)" id="svg_5"/>
  <path class="change-color-in-svg" d="m383.5,806c0.83,0 1.5,-0.67 1.5,-1.5c0,-0.83 -0.67,-1.5 -1.5,-1.5c-0.83,0 -1.5,0.67 -1.5,1.5c0,0.83 0.67,1.5 1.5,1.5z" fill="rgb(43, 131, 252)" id="svg_6"/>
  <path class="change-color-in-svg" d="m388.5,806c0.83,0 1.5,-0.67 1.5,-1.5c0,-0.83 -0.67,-1.5 -1.5,-1.5c-0.83,0 -1.5,0.67 -1.5,1.5c0,0.83 0.67,1.5 1.5,1.5z" fill="rgb(43, 131, 252)" id="svg_7"/>
  <path class="change-color-in-svg" d="m393.5,806c0.83,0 1.5,-0.67 1.5,-1.5c0,-0.83 -0.67,-1.5 -1.5,-1.5c-0.83,0 -1.5,0.67 -1.5,1.5c0,0.83 0.67,1.5 1.5,1.5z" fill="rgb(43, 131, 252)" id="svg_8"/>
  <path class="change-color-in-svg" d="m412.22,839l3.65,1.16c-0.4,1.78 -1.39,3.37 -2.79,4.53c-1.44,1.03 -3.18,1.55 -4.95,1.48c-1.15,0.04 -2.29,-0.18 -3.35,-0.62c-1.05,-0.44 -2,-1.11 -2.78,-1.95c-1.67,-1.91 -2.53,-4.4 -2.39,-6.94c0,-3.1 0.8,-5.51 2.41,-7.23c0.8,-0.86 1.78,-1.53 2.87,-1.97c1.09,-0.44 2.26,-0.65 3.44,-0.6c2.04,-0.1 4.04,0.62 5.56,2c0.94,0.95 1.6,2.13 1.91,3.43l-3.73,0.89c-0.17,-0.91 -0.67,-1.72 -1.39,-2.29c-0.72,-0.58 -1.62,-0.87 -2.54,-0.84c-0.64,-0.02 -1.27,0.1 -1.85,0.36c-0.58,0.26 -1.1,0.65 -1.51,1.13c-0.86,0.99 -1.29,2.6 -1.29,4.82c0,2.36 0.42,4 1.27,5c0.4,0.49 0.91,0.88 1.48,1.14c0.57,0.26 1.2,0.39 1.83,0.37c0.95,0.01 1.88,-0.35 2.58,-1c0.8,-0.77 1.35,-1.78 1.57,-2.87l0,0z" fill="rgb(43, 131, 252)" id="svg_9"/>
  <path class="change-color-in-svg" d="m418.15,839.75l3.66,-0.36c0.12,1.03 0.59,1.99 1.34,2.71c0.77,0.62 1.74,0.93 2.73,0.87c0.97,0.07 1.94,-0.2 2.74,-0.77c0.28,-0.21 0.51,-0.48 0.67,-0.79c0.15,-0.32 0.24,-0.66 0.25,-1.01c0.01,-0.41 -0.13,-0.81 -0.39,-1.13c-0.38,-0.38 -0.84,-0.66 -1.35,-0.81c-0.44,-0.15 -1.45,-0.42 -3,-0.81c-1.54,-0.28 -2.99,-0.91 -4.24,-1.84c-0.91,-0.78 -1.51,-1.86 -1.67,-3.04c-0.17,-1.18 0.1,-2.38 0.76,-3.38c0.58,-0.85 1.39,-1.51 2.35,-1.89c1.17,-0.46 2.42,-0.67 3.67,-0.64c1.89,-0.14 3.76,0.4 5.29,1.53c0.58,0.51 1.05,1.14 1.37,1.85c0.32,0.71 0.49,1.48 0.49,2.26l-3.76,0.17c-0.07,-0.79 -0.43,-1.53 -1,-2.07c-0.71,-0.47 -1.55,-0.69 -2.39,-0.63c-0.9,-0.05 -1.8,0.19 -2.56,0.67c-0.19,0.13 -0.34,0.3 -0.45,0.5c-0.1,0.21 -0.16,0.43 -0.15,0.66c0,0.22 0.05,0.43 0.15,0.63c0.09,0.2 0.23,0.37 0.41,0.5c1.06,0.63 2.24,1.05 3.46,1.25c1.4,0.29 2.76,0.73 4.06,1.34c0.85,0.43 1.56,1.09 2.06,1.9c0.52,0.92 0.77,1.96 0.75,3.02c-0.03,1.05 -0.34,2.09 -0.9,2.98c-0.6,0.93 -1.48,1.66 -2.51,2.07c-1.3,0.49 -2.68,0.72 -4.06,0.68c-1.95,0.13 -3.88,-0.45 -5.43,-1.63c-1.38,-1.23 -2.22,-2.95 -2.35,-4.79l0,0z" fill="rgb(43, 131, 252)" id="svg_10"/>
  <path class="change-color-in-svg" d="m435.52,839.75l3.66,-0.36c0.12,1.03 0.59,1.99 1.34,2.71c0.77,0.62 1.74,0.93 2.73,0.87c0.97,0.07 1.94,-0.2 2.74,-0.77c0.28,-0.21 0.51,-0.48 0.67,-0.79c0.16,-0.32 0.24,-0.66 0.25,-1.01c0.01,-0.41 -0.13,-0.81 -0.39,-1.13c-0.37,-0.38 -0.84,-0.66 -1.35,-0.81c-0.44,-0.15 -1.45,-0.42 -3,-0.81c-1.54,-0.28 -2.99,-0.91 -4.24,-1.84c-0.91,-0.78 -1.51,-1.86 -1.67,-3.04c-0.17,-1.18 0.1,-2.38 0.76,-3.38c0.57,-0.85 1.38,-1.5 2.32,-1.89c1.17,-0.46 2.42,-0.67 3.67,-0.64c1.89,-0.14 3.77,0.4 5.29,1.53c0.58,0.51 1.05,1.14 1.37,1.85c0.32,0.71 0.49,1.48 0.49,2.26l-3.76,0.17c-0.07,-0.79 -0.42,-1.53 -1,-2.07c-0.71,-0.46 -1.56,-0.67 -2.4,-0.6c-0.9,-0.05 -1.8,0.18 -2.56,0.67c-0.19,0.13 -0.34,0.3 -0.45,0.5c-0.1,0.21 -0.16,0.43 -0.15,0.66c0,0.22 0.05,0.43 0.15,0.63c0.09,0.2 0.24,0.37 0.41,0.5c1.06,0.63 2.24,1.06 3.46,1.25c1.4,0.28 2.76,0.74 4.06,1.34c0.85,0.43 1.56,1.09 2.06,1.9c0.52,0.92 0.77,1.96 0.75,3.02c-0.03,1.06 -0.34,2.08 -0.9,2.98c-0.6,0.94 -1.48,1.66 -2.51,2.07c-1.3,0.49 -2.68,0.72 -4.06,0.68c-1.95,0.13 -3.88,-0.45 -5.43,-1.63c-1.37,-1.24 -2.2,-2.98 -2.31,-4.82l0,0z" fill="rgb(43, 131, 252)" id="svg_11"/>
  <path class="change-color-in-svg" d="m675.16,415.5l-164.81,0c-1.3,0 -2.35,-0.62 -2.35,-1.39l0,-73.22c0,-0.77 1.05,-1.39 2.35,-1.39l164.81,0c1.29,0 2.34,0.62 2.34,1.39l0,73.22c0,0.77 -1.05,1.39 -2.34,1.39zm-164.82,-75c-0.36,0 -0.65,0.18 -0.65,0.39l0,73.22c0,0.21 0.29,0.39 0.65,0.39l162.32,0c0.35,0 0.64,-0.18 0.64,-0.39l0,-73.22c0,-0.21 -0.29,-0.39 -0.64,-0.39l-162.32,0z" fill="rgb(43, 131, 252)" id="svg_12"/>
  <path d="m675.16,415.5l-164.81,0c-1.3,0 -2.35,-0.62 -2.35,-1.39l0,-73.22c0,-0.77 1.05,-1.39 2.35,-1.39l164.81,0c1.29,0 2.34,0.62 2.34,1.39l0,73.22c0,0.77 -1.05,1.39 -2.34,1.39zm-164.82,-75c-0.36,0 -0.65,0.18 -0.65,0.39l0,73.22c0,0.21 0.29,0.39 0.65,0.39l162.32,0c0.35,0 0.64,-0.18 0.64,-0.39l0,-73.22c0,-0.21 -0.29,-0.39 -0.64,-0.39l-162.32,0z" fill="rgb(0, 0, 0)" id="svg_13" opacity="0.2"/>
  <path class="change-color-in-svg" d="m672.33,415.5l-162,0c-1.28,0 -2.32,-0.62 -2.32,-1.39l0,-73.22c0,-0.77 1,-1.39 2.32,-1.39l162,0c1.28,0 2.32,0.62 2.32,1.39l0,73.22c0,0.77 -1.04,1.39 -2.32,1.39zm-162,-75c-0.35,0 -0.64,0.17 -0.64,0.39l0,73.22c0,0.22 0.29,0.39 0.64,0.39l162,0c0.35,0 0.64,-0.17 0.64,-0.39l0,-73.22c0,-0.22 -0.29,-0.39 -0.64,-0.39l-162,0z" fill="rgb(43, 131, 252)" id="svg_14"/>
  <path class="change-color-in-svg" d="m672.16,351l-161.82,0l0,1l161.82,0l0,-1z" fill="rgb(43, 131, 252)" id="svg_15"/>
  <path class="change-color-in-svg" d="m515.5,347c0.83,0 1.5,-0.67 1.5,-1.5c0,-0.83 -0.67,-1.5 -1.5,-1.5c-0.83,0 -1.5,0.67 -1.5,1.5c0,0.83 0.67,1.5 1.5,1.5z" fill="rgb(43, 131, 252)" id="svg_16"/>
  <path class="change-color-in-svg" d="m520.5,347c0.83,0 1.5,-0.67 1.5,-1.5c0,-0.83 -0.67,-1.5 -1.5,-1.5c-0.83,0 -1.5,0.67 -1.5,1.5c0,0.83 0.67,1.5 1.5,1.5z" fill="rgb(43, 131, 252)" id="svg_17"/>
  <path class="change-color-in-svg" d="m525.5,347c0.83,0 1.5,-0.67 1.5,-1.5c0,-0.83 -0.67,-1.5 -1.5,-1.5c-0.83,0 -1.5,0.67 -1.5,1.5c0,0.83 0.67,1.5 1.5,1.5z" fill="rgb(43, 131, 252)" id="svg_18"/>
  <path class="change-color-in-svg" d="m525.52,371.86l3.39,0l0,10.66c0.04,1.09 -0.08,2.17 -0.37,3.22c-0.32,0.96 -0.95,1.79 -1.79,2.36c-1.03,0.63 -2.22,0.94 -3.42,0.89c-0.7,0.05 -1.41,-0.06 -2.07,-0.3c-0.66,-0.24 -1.26,-0.61 -1.77,-1.1c-0.97,-1.13 -1.46,-2.6 -1.36,-4.09l3.21,-0.37c-0.01,0.69 0.13,1.37 0.42,2c0.18,0.26 0.42,0.47 0.69,0.63c0.27,0.16 0.58,0.25 0.89,0.27c0.32,0.03 0.63,-0.02 0.93,-0.13c0.29,-0.11 0.56,-0.28 0.78,-0.51c0.4,-0.84 0.56,-1.77 0.47,-2.69l0,-10.84z" fill="rgb(43, 131, 252)" id="svg_19"/>
  <path class="change-color-in-svg" d="m547.72,388.7l-3.72,0l-1.47,-3.82l-6.74,0l-1.39,3.82l-3.6,0l6.56,-16.84l3.64,0l6.72,16.84zm-6.27,-6.7l-2.32,-6.25l-2.27,6.25l4.59,0z" fill="rgb(43, 131, 252)" id="svg_20"/>
  <path class="change-color-in-svg" d="m552.07,388.7l-6,-16.84l3.69,0l4.24,12.46l4.12,-12.46l3.61,0l-6,16.84l-3.66,0z" fill="rgb(43, 131, 252)" id="svg_21"/>
  <path class="change-color-in-svg" d="m576.91,388.7l-3.7,0l-1.47,-3.82l-6.74,0l-1.39,3.82l-3.61,0l6.56,-16.84l3.59,0l6.76,16.84zm-6.26,-6.7l-2.32,-6.25l-2.28,6.25l4.6,0z" fill="rgb(43, 131, 252)" id="svg_22"/>
  <path class="change-color-in-svg" d="m577.85,383.22l3.31,-0.32c0.11,0.93 0.53,1.8 1.21,2.45c0.7,0.55 1.57,0.83 2.46,0.78c0.89,0.07 1.76,-0.18 2.48,-0.7c0.25,-0.19 0.46,-0.43 0.6,-0.71c0.15,-0.28 0.23,-0.59 0.23,-0.91c0.01,-0.36 -0.11,-0.72 -0.35,-1c-0.34,-0.34 -0.76,-0.6 -1.22,-0.73c-0.4,-0.14 -1.31,-0.38 -2.72,-0.73c-1.39,-0.25 -2.7,-0.83 -3.84,-1.67c-0.49,-0.41 -0.88,-0.94 -1.15,-1.52c-0.27,-0.59 -0.41,-1.23 -0.4,-1.87c0,-0.86 0.25,-1.7 0.73,-2.41c0.51,-0.77 1.24,-1.36 2.1,-1.7c1.05,-0.42 2.18,-0.62 3.31,-0.59c1.71,-0.12 3.41,0.37 4.78,1.39c0.53,0.46 0.96,1.03 1.25,1.67c0.28,0.64 0.43,1.34 0.43,2.04l-3.4,0.15c-0.07,-0.71 -0.4,-1.38 -0.94,-1.86c-0.63,-0.42 -1.39,-0.62 -2.15,-0.57c-0.82,-0.05 -1.63,0.17 -2.32,0.61c-0.16,0.11 -0.3,0.26 -0.39,0.43c-0.09,0.18 -0.14,0.37 -0.15,0.57c0.01,0.19 0.05,0.38 0.14,0.56c0.08,0.17 0.21,0.32 0.36,0.44c0.96,0.57 2.03,0.95 3.13,1.13c1.27,0.27 2.5,0.69 3.66,1.25c0.76,0.4 1.41,0.99 1.86,1.71c0.46,0.83 0.69,1.77 0.67,2.72c-0.02,0.95 -0.3,1.87 -0.8,2.68c-0.55,0.85 -1.34,1.51 -2.28,1.88c-1.17,0.44 -2.41,0.65 -3.66,0.61c-1.76,0.12 -3.51,-0.41 -4.91,-1.48c-1.2,-1.12 -1.93,-2.66 -2.03,-4.3z" fill="rgb(43, 131, 252)" id="svg_23"/>
  <path class="change-color-in-svg" d="m605.18,382.51l3.3,1c-0.36,1.61 -1.25,3.05 -2.53,4.1c-1.52,1.02 -3.35,1.49 -5.17,1.31c-1.82,-0.17 -3.53,-0.97 -4.83,-2.26c-1.51,-1.73 -2.29,-3.98 -2.16,-6.27c-0.13,-2.37 0.67,-4.69 2.21,-6.49c0.73,-0.77 1.62,-1.38 2.6,-1.78c0.99,-0.41 2.05,-0.59 3.11,-0.55c1.84,-0.07 3.64,0.59 5,1.83c0.84,0.86 1.44,1.93 1.72,3.1l-3.37,0.81c-0.15,-0.82 -0.59,-1.56 -1.25,-2.08c-0.65,-0.52 -1.47,-0.78 -2.3,-0.75c-0.57,-0.01 -1.13,0.1 -1.65,0.33c-0.52,0.23 -0.98,0.58 -1.35,1.01c-0.89,1.27 -1.3,2.82 -1.17,4.36c0,2.13 0.38,3.64 1.15,4.55c0.36,0.44 0.82,0.79 1.34,1.03c0.52,0.23 1.09,0.34 1.66,0.32c0.86,0.02 1.7,-0.29 2.34,-0.86c0.72,-0.74 1.19,-1.69 1.35,-2.71l0,0z" fill="rgb(43, 131, 252)" id="svg_24"/>
  <path class="change-color-in-svg" d="m611.4,388.7l0,-16.84l7.16,0c1.32,-0.06 2.65,0.09 3.93,0.45c0.83,0.3 1.54,0.87 2,1.62c0.5,0.79 0.75,1.71 0.74,2.65c0.04,1.15 -0.36,2.27 -1.12,3.13c-0.89,0.9 -2.07,1.45 -3.33,1.56c0.67,0.38 1.29,0.85 1.82,1.41c0.73,0.86 1.37,1.77 1.94,2.74l2.06,3.28l-4.07,0l-2.53,-3.7c-0.54,-0.86 -1.14,-1.69 -1.79,-2.48c-0.28,-0.31 -0.62,-0.55 -1,-0.7c-0.56,-0.15 -1.14,-0.22 -1.72,-0.19l-0.68,0l0,7l-3.41,0.07zm3.41,-9.72l2.51,0c1.02,0.05 2.05,-0.02 3.06,-0.2c0.4,-0.12 0.76,-0.37 1,-0.72c0.24,-0.37 0.36,-0.81 0.35,-1.26c0.02,-0.5 -0.14,-0.99 -0.46,-1.37c-0.34,-0.37 -0.79,-0.6 -1.28,-0.66c-0.28,0 -1.1,-0.06 -2.48,-0.06l-2.65,0l-0.05,4.27z" fill="rgb(43, 131, 252)" id="svg_25"/>
  <path class="change-color-in-svg" d="m628.28,388.7l0,-16.84l3.4,0l0,16.84l-3.4,0z" fill="rgb(43, 131, 252)" id="svg_26"/>
  <path class="change-color-in-svg" d="m634.92,388.7l0,-16.84l5.46,0c1.34,-0.05 2.68,0.03 4,0.25c0.97,0.26 1.83,0.84 2.43,1.65c0.69,0.95 1.05,2.1 1,3.28c0.03,0.9 -0.16,1.8 -0.56,2.61c-0.34,0.66 -0.83,1.23 -1.43,1.66c-0.53,0.38 -1.12,0.65 -1.76,0.8c-1.16,0.19 -2.35,0.27 -3.53,0.24l-2.22,0l0,6.35l-3.39,0zm3.4,-14l0,4.78l1.86,0c0.91,0.05 1.81,-0.04 2.69,-0.27c0.43,-0.16 0.8,-0.44 1.06,-0.82c0.26,-0.39 0.4,-0.84 0.39,-1.31c0.02,-0.56 -0.17,-1.1 -0.54,-1.52c-0.36,-0.4 -0.84,-0.66 -1.37,-0.75c-0.81,-0.1 -1.63,-0.13 -2.45,-0.11l-1.64,0z" fill="rgb(43, 131, 252)" id="svg_27"/>
  <path class="change-color-in-svg" d="m654.4,388.7l0,-14l-5,0l0,-2.85l13.38,0l0,2.85l-5,0l0,14l-3.38,0z" fill="rgb(43, 131, 252)" id="svg_28"/>
  <path d="m731.88,654.82l0,15.42l-251.33,0l0,-168.28l16.77,0" fill="rgb(0, 0, 0)" id="svg_29" opacity="0.1"/>
  <path d="m749.43,485.7l-251.34,0l0,168.28l251.34,0l0,-168.28z" fill="rgb(255, 255, 255)" id="svg_30" transform="matrix(1 0 0 1 0 0)"/>
  <path class="change-color-in-svg" d="m508,493.14c0,0.4 -0.12,0.78 -0.34,1.11c-0.22,0.33 -0.53,0.59 -0.89,0.74c-0.37,0.15 -0.77,0.19 -1.16,0.11c-0.39,-0.08 -0.75,-0.27 -1.02,-0.55c-0.28,-0.28 -0.47,-0.63 -0.55,-1.02c-0.08,-0.39 -0.04,-0.79 0.11,-1.15c0.15,-0.37 0.41,-0.68 0.74,-0.9c0.33,-0.22 0.71,-0.34 1.11,-0.34c0.53,0 1.04,0.21 1.41,0.59c0.38,0.37 0.59,0.88 0.59,1.41z" fill="rgb(43, 131, 252)" id="svg_31"/>
  <path class="change-color-in-svg" d="m514.91,493.14c0,0.4 -0.12,0.78 -0.34,1.11c-0.22,0.33 -0.53,0.59 -0.89,0.74c-0.37,0.15 -0.77,0.19 -1.16,0.11c-0.39,-0.08 -0.74,-0.27 -1.02,-0.55c-0.28,-0.28 -0.47,-0.63 -0.55,-1.02c-0.08,-0.39 -0.04,-0.79 0.11,-1.15c0.15,-0.37 0.41,-0.68 0.74,-0.9c0.33,-0.22 0.72,-0.34 1.11,-0.34c0.53,0 1.04,0.21 1.41,0.59c0.38,0.37 0.59,0.88 0.59,1.41z" fill="rgb(43, 131, 252)" id="svg_32"/>
  <path class="change-color-in-svg" d="m521.72,493.14c0,0.4 -0.12,0.78 -0.34,1.11c-0.22,0.33 -0.53,0.59 -0.9,0.74c-0.36,0.15 -0.76,0.19 -1.15,0.11c-0.39,-0.08 -0.75,-0.27 -1.03,-0.55c-0.27,-0.28 -0.47,-0.63 -0.54,-1.02c-0.08,-0.39 -0.04,-0.79 0.11,-1.15c0.15,-0.37 0.41,-0.68 0.74,-0.9c0.33,-0.22 0.71,-0.34 1.11,-0.34c0.53,0 1.04,0.21 1.41,0.59c0.38,0.37 0.59,0.88 0.59,1.41z" fill="rgb(43, 131, 252)" id="svg_33"/>
  <g id="svg_34" opacity="0.6">
   <path d="m508,493.14c0,0.4 -0.12,0.78 -0.34,1.11c-0.22,0.33 -0.53,0.59 -0.89,0.74c-0.37,0.15 -0.77,0.19 -1.16,0.11c-0.39,-0.08 -0.75,-0.27 -1.02,-0.55c-0.28,-0.28 -0.47,-0.63 -0.55,-1.02c-0.08,-0.39 -0.04,-0.79 0.11,-1.15c0.15,-0.37 0.41,-0.68 0.74,-0.9c0.33,-0.22 0.71,-0.34 1.11,-0.34c0.53,0 1.04,0.21 1.41,0.59c0.38,0.37 0.59,0.88 0.59,1.41z" fill="rgb(255, 255, 255)" id="svg_35" opacity="0.6"/>
   <path d="m514.91,493.14c0,0.4 -0.12,0.78 -0.34,1.11c-0.22,0.33 -0.53,0.59 -0.89,0.74c-0.37,0.15 -0.77,0.19 -1.16,0.11c-0.39,-0.08 -0.74,-0.27 -1.02,-0.55c-0.28,-0.28 -0.47,-0.63 -0.55,-1.02c-0.08,-0.39 -0.04,-0.79 0.11,-1.15c0.15,-0.37 0.41,-0.68 0.74,-0.9c0.33,-0.22 0.72,-0.34 1.11,-0.34c0.53,0 1.04,0.21 1.41,0.59c0.38,0.37 0.59,0.88 0.59,1.41z" fill="rgb(255, 255, 255)" id="svg_36" opacity="0.6"/>
   <path d="m521.72,493.14c0,0.4 -0.12,0.78 -0.34,1.11c-0.22,0.33 -0.53,0.59 -0.9,0.74c-0.36,0.15 -0.76,0.19 -1.15,0.11c-0.39,-0.08 -0.75,-0.27 -1.03,-0.55c-0.27,-0.28 -0.47,-0.63 -0.54,-1.02c-0.08,-0.39 -0.04,-0.79 0.11,-1.15c0.15,-0.37 0.41,-0.68 0.74,-0.9c0.33,-0.22 0.71,-0.34 1.11,-0.34c0.53,0 1.04,0.21 1.41,0.59c0.38,0.37 0.59,0.88 0.59,1.41z" fill="rgb(255, 255, 255)" id="svg_37" opacity="0.6"/>
  </g>
  <path class="change-color-in-svg" d="m497.52,485.13l0,169.42l252.48,0l0,-169.42l-252.48,0zm251.34,1.14l0,13.87l-250.2,0l0,-13.87l250.2,0zm-250.2,167.14l0,-152.13l250.2,0l0,152.13l-250.2,0z" fill="rgb(43, 131, 252)" id="svg_38"/>
  <path d="m497.52,485.13l0,169.42l252.48,0l0,-169.42l-252.48,0zm251.34,1.14l0,13.87l-250.2,0l0,-13.87l250.2,0zm-250.2,167.14l0,-152.13l250.2,0l0,152.13l-250.2,0z" fill="rgb(255, 255, 255)" id="svg_39" opacity="0.6"/>
  <path class="change-color-in-svg" d="m587.24,518.26l-67.04,0l0,67.04l67.04,0l0,-67.04z" fill="rgb(43, 131, 252)" id="svg_40"/>
  <g id="svg_41" opacity="0.6">
   <path d="m587.24,518.26l-67.04,0l0,67.04l67.04,0l0,-67.04z" fill="rgb(255, 255, 255)" id="svg_42" opacity="0.6"/>
  </g>
  <path class="change-color-in-svg" d="m555.91,607.91l-31.51,0l0,31.51l31.51,0l0,-31.51z" fill="rgb(43, 131, 252)" id="svg_43"/>
  <path d="m555.91,607.91l-31.51,0l0,31.51l31.51,0l0,-31.51z" fill="rgb(255, 255, 255)" id="svg_44" opacity="0.6"/>
  <path class="change-color-in-svg" d="m613.05,607.91l-31.51,0l0,31.51l31.51,0l0,-31.51z" fill="rgb(43, 131, 252)" id="svg_45"/>
  <path d="m613.05,607.91l-31.51,0l0,31.51l31.51,0l0,-31.51z" fill="rgb(255, 255, 255)" id="svg_46" opacity="0.6"/>
  <path class="change-color-in-svg" d="m670.19,607.91l-31.51,0l0,31.51l31.51,0l0,-31.51z" fill="rgb(43, 131, 252)" id="svg_47"/>
  <path d="m670.19,607.91l-31.51,0l0,31.51l31.51,0l0,-31.51z" fill="rgb(255, 255, 255)" id="svg_48" opacity="0.6"/>
  <path class="change-color-in-svg" d="m727.33,607.91l-31.51,0l0,31.51l31.51,0l0,-31.51z" fill="rgb(43, 131, 252)" id="svg_49"/>
  <path d="m727.33,607.91l-31.51,0l0,31.51l31.51,0l0,-31.51z" fill="rgb(255, 255, 255)" id="svg_50" opacity="0.6"/>
  <g id="svg_51" opacity="0.6">
   <path class="change-color-in-svg" d="m715.38,530.22l-116.8,0c-0.15,0 -0.29,-0.06 -0.4,-0.17c-0.1,-0.11 -0.17,-0.25 -0.17,-0.4c0,-0.07 0.02,-0.15 0.04,-0.22c0.03,-0.07 0.08,-0.13 0.13,-0.18c0.05,-0.06 0.11,-0.1 0.18,-0.13c0.07,-0.03 0.15,-0.04 0.22,-0.04l116.8,0c0.08,0 0.15,0.01 0.22,0.04c0.07,0.03 0.13,0.07 0.19,0.12c0.05,0.06 0.09,0.12 0.12,0.19c0.03,0.07 0.04,0.15 0.04,0.22c0,0.07 -0.01,0.15 -0.04,0.22c-0.03,0.07 -0.07,0.13 -0.13,0.18c-0.05,0.06 -0.11,0.1 -0.18,0.13c-0.07,0.03 -0.14,0.04 -0.22,0.04z" fill="rgb(43, 131, 252)" id="svg_52" opacity="0.6"/>
   <path class="change-color-in-svg" d="m715.38,542.76l-116.8,0c-0.15,0 -0.29,-0.06 -0.4,-0.17c-0.1,-0.11 -0.17,-0.25 -0.17,-0.4c0,-0.08 0.02,-0.15 0.04,-0.22c0.03,-0.07 0.08,-0.13 0.13,-0.18c0.05,-0.06 0.11,-0.1 0.18,-0.13c0.07,-0.03 0.15,-0.04 0.22,-0.04l116.8,0c0.08,0 0.15,0.01 0.22,0.04c0.07,0.03 0.13,0.07 0.19,0.12c0.05,0.06 0.09,0.12 0.12,0.19c0.03,0.07 0.04,0.14 0.04,0.22c0,0.15 -0.06,0.29 -0.17,0.4c-0.1,0.11 -0.25,0.17 -0.4,0.17l0,0z" fill="rgb(43, 131, 252)" id="svg_53" opacity="0.6"/>
   <path class="change-color-in-svg" d="m715.38,555.3l-116.8,0c-0.15,0 -0.29,-0.06 -0.4,-0.17c-0.1,-0.11 -0.17,-0.25 -0.17,-0.4c0,-0.15 0.06,-0.3 0.17,-0.4c0.11,-0.11 0.25,-0.17 0.4,-0.17l116.8,0c0.08,0 0.15,0.01 0.22,0.04c0.07,0.03 0.13,0.07 0.19,0.12c0.05,0.06 0.09,0.12 0.12,0.19c0.03,0.07 0.04,0.15 0.04,0.22c0,0.15 -0.06,0.3 -0.17,0.4c-0.1,0.11 -0.25,0.17 -0.4,0.17l0,0z" fill="rgb(43, 131, 252)" id="svg_54" opacity="0.6"/>
   <path class="change-color-in-svg" d="m666.31,567.84l-67.73,0c-0.07,0 -0.15,-0.02 -0.22,-0.04c-0.07,-0.03 -0.13,-0.08 -0.18,-0.13c-0.05,-0.05 -0.1,-0.11 -0.13,-0.18c-0.02,-0.07 -0.04,-0.15 -0.04,-0.22c0,-0.15 0.07,-0.3 0.17,-0.4c0.11,-0.11 0.25,-0.17 0.4,-0.17l67.73,0c0.15,0 0.3,0.06 0.4,0.17c0.11,0.1 0.17,0.25 0.17,0.4c0,0.07 -0.01,0.15 -0.04,0.22c-0.03,0.07 -0.07,0.13 -0.12,0.18c-0.06,0.05 -0.12,0.1 -0.19,0.13c-0.07,0.02 -0.14,0.04 -0.22,0.04z" fill="rgb(43, 131, 252)" id="svg_55" opacity="0.6"/>
  </g>
  <path d="m1344.11,1019.2l-1041.25,0c-0.22,0.04 -0.44,0.02 -0.65,-0.04c-0.22,-0.05 -0.41,-0.16 -0.58,-0.3c-0.17,-0.14 -0.3,-0.32 -0.4,-0.52c-0.09,-0.2 -0.14,-0.42 -0.14,-0.64c0,-0.22 0.05,-0.44 0.14,-0.64c0.1,-0.2 0.23,-0.38 0.4,-0.52c0.17,-0.14 0.36,-0.25 0.58,-0.3c0.21,-0.06 0.43,-0.08 0.65,-0.04l1041.25,0c0.22,-0.04 0.44,-0.02 0.65,0.04c0.21,0.05 0.41,0.16 0.58,0.3c0.17,0.14 0.3,0.32 0.39,0.52c0.1,0.2 0.15,0.42 0.15,0.64c0,0.22 -0.05,0.44 -0.15,0.64c-0.09,0.2 -0.22,0.38 -0.39,0.52c-0.17,0.14 -0.37,0.25 -0.58,0.3c-0.21,0.06 -0.43,0.08 -0.65,0.04z" fill="rgb(178, 182, 187)" id="svg_56"/>
  <path d="m824,765.16l120.3,0c1.53,0 3,0.61 4.08,1.69c1.08,1.08 1.69,2.55 1.69,4.08c0,1.53 -0.61,3 -1.69,4.08c-1.08,1.08 -2.55,1.69 -4.08,1.69l-120.3,0" fill="rgb(134, 138, 145)" id="svg_57"/>
  <path d="m824,765.16l120.3,0c1.53,0 3,0.61 4.08,1.69c1.08,1.08 1.69,2.55 1.69,4.08c0,1.53 -0.61,3 -1.69,4.08c-1.08,1.08 -2.55,1.69 -4.08,1.69l-120.3,0" fill="rgb(0, 0, 0)" id="svg_58" opacity="0.2"/>
  <path d="m519.92,765.16l360.08,0c0.8,-0.07 1.6,0.03 2.36,0.29c0.76,0.26 1.45,0.68 2.04,1.22c0.59,0.54 1.06,1.2 1.38,1.93c0.32,0.74 0.49,1.53 0.49,2.33c0,0.8 -0.17,1.59 -0.49,2.33c-0.32,0.73 -0.79,1.39 -1.38,1.93c-0.59,0.54 -1.28,0.96 -2.04,1.22c-0.76,0.26 -1.56,0.36 -2.36,0.29l-360.08,0c-0.8,0.07 -1.6,-0.03 -2.36,-0.29c-0.76,-0.26 -1.45,-0.68 -2.04,-1.22c-0.59,-0.54 -1.06,-1.2 -1.38,-1.93c-0.32,-0.74 -0.49,-1.53 -0.49,-2.33c0,-0.8 0.17,-1.59 0.49,-2.33c0.32,-0.73 0.79,-1.39 1.38,-1.93c0.59,-0.54 1.28,-0.96 2.04,-1.22c0.76,-0.26 1.56,-0.36 2.36,-0.29z" fill="rgb(134, 138, 145)" id="svg_59"/>
  <path d="m533.01,776.82l-5.93,0l0,239.59l5.93,0l0,-239.59z" fill="rgb(134, 138, 145)" id="svg_60"/>
  <path d="m875.17,776.7l-5.93,0l0,239.72l5.93,0l0,-239.72z" fill="rgb(134, 138, 145)" id="svg_61"/>
  <path d="m748.56,776.44l120.68,0.26l0,38.81l-120.68,-0.26l0,-38.81z" fill="rgb(134, 138, 145)" id="svg_62"/>
  <path d="m864.52,811.31l-111,-0.2l0,-29.58l111,0.19l0,29.59zm-110.09,-1.1l109.19,0.19l0,-27.78l-109.19,-0.19l0,27.78z" fill="rgb(0, 0, 0)" id="svg_63" opacity="0.2"/>
  <path d="m812,795.25c0.16,0.67 0.09,1.38 -0.19,2.01c-0.28,0.63 -0.76,1.15 -1.36,1.48c-0.6,0.34 -1.3,0.47 -1.98,0.37c-0.68,-0.09 -1.32,-0.41 -1.8,-0.9c-0.49,-0.49 -0.81,-1.12 -0.9,-1.81c-0.09,-0.68 0.04,-1.38 0.38,-1.98c0.33,-0.6 0.86,-1.07 1.49,-1.35c0.63,-0.28 1.34,-0.34 2.01,-0.18c0.57,0.14 1.09,0.43 1.51,0.85c0.41,0.41 0.7,0.94 0.84,1.51" fill="rgb(97, 101, 109)" id="svg_64"/>
  <path d="m812,795.25c-0.13,-0.57 -0.42,-1.1 -0.84,-1.52c-0.41,-0.41 -0.94,-0.7 -1.51,-0.84c-0.39,-0.07 -0.8,-0.07 -1.19,0l0.29,0c0.72,0.16 1.36,0.58 1.81,1.16c0.45,0.59 0.67,1.32 0.64,2.06c-0.03,0.73 -0.32,1.44 -0.82,1.99c-0.49,0.54 -1.17,0.9 -1.9,1c0.51,0.07 1.03,0.02 1.51,-0.15c0.49,-0.18 0.92,-0.47 1.27,-0.85c0.34,-0.38 0.59,-0.83 0.72,-1.33c0.13,-0.5 0.14,-1.02 0.02,-1.52l0,0z" fill="rgb(0, 0, 0)" id="svg_65" opacity="0.2"/>
  <path d="m748.56,811.44l120.68,0.26l0,38.81l-120.68,-0.26l0,-38.81z" fill="rgb(134, 138, 145)" id="svg_66"/>
  <path d="m864.52,846.31l-111,-0.2l0,-29.58l111,0.19l0,29.59zm-110.09,-1.1l109.19,0.19l0,-27.78l-109.19,-0.19l0,27.78z" fill="rgb(0, 0, 0)" id="svg_67" opacity="0.2"/>
  <path d="m812,830.25c0.16,0.67 0.09,1.38 -0.19,2.01c-0.28,0.63 -0.76,1.15 -1.36,1.48c-0.6,0.34 -1.3,0.47 -1.98,0.37c-0.68,-0.09 -1.32,-0.41 -1.8,-0.9c-0.49,-0.49 -0.81,-1.12 -0.9,-1.81c-0.09,-0.68 0.04,-1.38 0.38,-1.98c0.33,-0.6 0.86,-1.07 1.49,-1.35c0.63,-0.28 1.34,-0.34 2.01,-0.18c0.57,0.14 1.09,0.43 1.51,0.85c0.41,0.41 0.7,0.94 0.84,1.51" fill="rgb(97, 101, 109)" id="svg_68"/>
  <path d="m812,830.25c-0.13,-0.57 -0.42,-1.1 -0.84,-1.52c-0.41,-0.41 -0.94,-0.7 -1.51,-0.84c-0.39,-0.07 -0.8,-0.07 -1.19,0l0.29,0c0.72,0.16 1.36,0.58 1.81,1.16c0.45,0.59 0.67,1.32 0.64,2.06c-0.03,0.73 -0.32,1.44 -0.82,1.99c-0.49,0.54 -1.17,0.9 -1.9,1c0.51,0.07 1.03,0.02 1.51,-0.15c0.49,-0.18 0.92,-0.47 1.27,-0.85c0.34,-0.38 0.59,-0.83 0.72,-1.33c0.13,-0.5 0.14,-1.02 0.02,-1.52l0,0z" fill="rgb(0, 0, 0)" id="svg_69" opacity="0.2"/>
  <path d="m748.56,847.44l120.68,0.26l0,38.81l-120.68,-0.26l0,-38.81z" fill="rgb(134, 138, 145)" id="svg_70"/>
  <path d="m864.52,882.31l-111,-0.2l0,-29.58l111,0.19l0,29.59zm-110.09,-1.1l109.19,0.19l0,-27.78l-109.19,-0.19l0,27.78z" fill="rgb(0, 0, 0)" id="svg_71" opacity="0.2"/>
  <path d="m812,866.25c0.16,0.67 0.09,1.38 -0.19,2.01c-0.28,0.63 -0.76,1.15 -1.36,1.48c-0.6,0.34 -1.3,0.47 -1.98,0.37c-0.68,-0.09 -1.32,-0.41 -1.8,-0.9c-0.49,-0.49 -0.81,-1.12 -0.9,-1.81c-0.09,-0.68 0.04,-1.38 0.38,-1.98c0.33,-0.6 0.86,-1.07 1.49,-1.35c0.63,-0.28 1.34,-0.34 2.01,-0.18c0.57,0.14 1.09,0.43 1.51,0.85c0.41,0.41 0.7,0.94 0.84,1.51z" fill="rgb(97, 101, 109)" id="svg_72"/>
  <path d="m763,994l-14,0l0,22l14,0l0,-22z" fill="rgb(134, 138, 145)" id="svg_73"/>
  <path d="m763,994l-7,0l0,21.96l7,0l0,-21.96z" fill="rgb(0, 0, 0)" id="svg_74" opacity="0.2"/>
  <path d="m828,994l-14,0l0,22l14,0l0,-22z" fill="rgb(134, 138, 145)" id="svg_75"/>
  <path d="m828,994l-7,0l0,21.96l7,0l0,-21.96z" fill="rgb(0, 0, 0)" id="svg_76" opacity="0.2"/>
  <path d="m812,866.25c-0.13,-0.57 -0.42,-1.1 -0.84,-1.52c-0.41,-0.41 -0.94,-0.7 -1.51,-0.84c-0.39,-0.07 -0.8,-0.07 -1.19,0l0.29,0c0.72,0.16 1.36,0.58 1.81,1.16c0.45,0.59 0.67,1.32 0.64,2.06c-0.03,0.73 -0.32,1.44 -0.82,1.99c-0.49,0.54 -1.17,0.9 -1.9,1c0.51,0.07 1.03,0.02 1.51,-0.15c0.49,-0.18 0.92,-0.47 1.27,-0.85c0.34,-0.38 0.59,-0.83 0.72,-1.33c0.13,-0.5 0.14,-1.02 0.02,-1.52l0,0z" fill="rgb(0, 0, 0)" id="svg_77" opacity="0.2"/>
  <path d="m748.56,883.44l120.68,0.26l0,38.81l-120.68,-0.26l0,-38.81z" fill="rgb(134, 138, 145)" id="svg_78"/>
  <path d="m864.52,918.31l-111,-0.2l0,-29.58l111,0.19l0,29.59zm-110.09,-1.1l109.19,0.19l0,-27.78l-109.19,-0.19l0,27.78z" fill="rgb(0, 0, 0)" id="svg_79" opacity="0.2"/>
  <path d="m812,902.25c0.16,0.67 0.09,1.38 -0.19,2.01c-0.28,0.63 -0.76,1.15 -1.36,1.48c-0.6,0.34 -1.3,0.47 -1.98,0.37c-0.68,-0.09 -1.32,-0.41 -1.8,-0.9c-0.49,-0.49 -0.81,-1.12 -0.9,-1.81c-0.09,-0.68 0.04,-1.38 0.38,-1.98c0.33,-0.6 0.86,-1.07 1.49,-1.35c0.63,-0.28 1.34,-0.34 2.01,-0.18c0.57,0.14 1.09,0.43 1.51,0.85c0.41,0.41 0.7,0.94 0.84,1.51" fill="rgb(97, 101, 109)" id="svg_80"/>
  <path d="m812,902.25c-0.13,-0.57 -0.42,-1.1 -0.84,-1.52c-0.41,-0.41 -0.94,-0.7 -1.51,-0.84c-0.39,-0.07 -0.8,-0.07 -1.19,0l0.29,0c0.72,0.16 1.36,0.58 1.81,1.16c0.45,0.59 0.67,1.32 0.64,2.06c-0.03,0.73 -0.32,1.44 -0.82,1.99c-0.49,0.54 -1.17,0.9 -1.9,1c0.51,0.07 1.03,0.02 1.51,-0.15c0.49,-0.18 0.92,-0.47 1.27,-0.85c0.34,-0.38 0.59,-0.83 0.72,-1.33c0.13,-0.5 0.14,-1.02 0.02,-1.52l0,0z" fill="rgb(0, 0, 0)" id="svg_81" opacity="0.2"/>
  <path d="m748.56,919.44l120.68,0.26l0,38.81l-120.68,-0.26l0,-38.81z" fill="rgb(134, 138, 145)" id="svg_82"/>
  <path d="m864.52,954.31l-111,-0.2l0,-29.58l111,0.19l0,29.59zm-110.09,-1.1l109.19,0.19l0,-27.78l-109.19,-0.19l0,27.78z" fill="rgb(0, 0, 0)" id="svg_83" opacity="0.2"/>
  <path d="m812,938.25c0.16,0.67 0.09,1.38 -0.19,2.01c-0.28,0.63 -0.76,1.15 -1.36,1.48c-0.6,0.34 -1.3,0.47 -1.98,0.37c-0.68,-0.09 -1.32,-0.41 -1.8,-0.9c-0.49,-0.49 -0.81,-1.12 -0.9,-1.81c-0.09,-0.68 0.04,-1.38 0.38,-1.98c0.33,-0.6 0.86,-1.07 1.49,-1.35c0.63,-0.28 1.34,-0.34 2.01,-0.18c0.57,0.14 1.09,0.43 1.51,0.85c0.41,0.41 0.7,0.94 0.84,1.51z" fill="rgb(97, 101, 109)" id="svg_84"/>
  <path d="m812,938.25c-0.13,-0.57 -0.42,-1.1 -0.84,-1.52c-0.41,-0.41 -0.94,-0.7 -1.51,-0.84c-0.39,-0.07 -0.8,-0.07 -1.19,0l0.29,0c0.72,0.16 1.36,0.58 1.81,1.16c0.45,0.59 0.67,1.32 0.64,2.06c-0.03,0.73 -0.32,1.44 -0.82,1.99c-0.49,0.54 -1.17,0.9 -1.9,1c0.51,0.07 1.03,0.02 1.51,-0.15c0.49,-0.18 0.92,-0.47 1.27,-0.85c0.34,-0.38 0.59,-0.83 0.72,-1.33c0.13,-0.5 0.14,-1.02 0.02,-1.52l0,0z" fill="rgb(0, 0, 0)" id="svg_85" opacity="0.2"/>
  <path d="m748.56,955.44l120.68,0.26l0,38.81l-120.68,-0.26l0,-38.81z" fill="rgb(134, 138, 145)" id="svg_86"/>
  <path d="m864.52,990.31l-111,-0.2l0,-29.58l111,0.19l0,29.59zm-110.09,-1.1l109.19,0.19l0,-27.78l-109.19,-0.19l0,27.78z" fill="rgb(0, 0, 0)" id="svg_87" opacity="0.2"/>
  <path d="m812,974.25c0.16,0.67 0.09,1.38 -0.19,2.01c-0.28,0.63 -0.76,1.15 -1.36,1.48c-0.6,0.34 -1.3,0.47 -1.98,0.37c-0.68,-0.09 -1.32,-0.41 -1.8,-0.9c-0.49,-0.49 -0.81,-1.12 -0.9,-1.81c-0.09,-0.68 0.04,-1.38 0.38,-1.98c0.33,-0.6 0.86,-1.07 1.49,-1.35c0.63,-0.28 1.34,-0.34 2.01,-0.18c0.57,0.14 1.09,0.43 1.51,0.85c0.41,0.41 0.7,0.94 0.84,1.51" fill="rgb(97, 101, 109)" id="svg_88"/>
  <path d="m812,974.25c-0.13,-0.57 -0.42,-1.1 -0.84,-1.52c-0.41,-0.41 -0.94,-0.7 -1.51,-0.84c-0.39,-0.07 -0.8,-0.07 -1.19,0l0.29,0c0.72,0.16 1.36,0.58 1.81,1.16c0.45,0.59 0.67,1.32 0.64,2.06c-0.03,0.73 -0.32,1.44 -0.82,1.99c-0.49,0.54 -1.17,0.9 -1.9,1c0.51,0.07 1.03,0.02 1.51,-0.15c0.49,-0.18 0.92,-0.47 1.27,-0.85c0.34,-0.38 0.59,-0.83 0.72,-1.33c0.13,-0.5 0.14,-1.02 0.02,-1.52l0,0z" fill="rgb(0, 0, 0)" id="svg_89" opacity="0.2"/>
  <path d="m937.83,776.7l-189.27,0l0,3.29l189.27,0l0,-3.29z" fill="rgb(0, 0, 0)" id="svg_90" opacity="0.2"/>
  <path d="m595.92,776.7l-68.58,0l0,3.29l68.58,0l0,-3.29z" fill="rgb(0, 0, 0)" id="svg_91" opacity="0.2"/>
  <path d="m576.42,868.9l-49.34,0l0,5.76l50.79,0l-1.45,-5.76z" fill="rgb(0, 0, 0)" id="svg_92" opacity="0.2"/>
  <path d="m595.67,868.9l-14.05,0l-0.8,5.76l14.85,0l0,-5.76z" fill="rgb(0, 0, 0)" id="svg_93" opacity="0.2"/>
  <path d="m875.16,776.7l0,239.71l8.54,0l0,-21.9l40.6,0l0,21.9l13.53,0l0,-239.71l-62.67,0z" fill="rgb(134, 138, 145)" id="svg_94"/>
  <path d="m533,776.82l0,239.59l8.7,0l0,-21.9l40.6,0l0,21.9l13.37,0l0,-239.59l-62.67,0z" fill="rgb(134, 138, 145)" id="svg_95"/>
  <path d="m533,776.82l0,239.59l8.7,0l0,-21.9l40.6,0l0,21.9l13.37,0l0,-239.59l-62.67,0z" fill="rgb(0, 0, 0)" id="svg_96" opacity="0.2"/>
  <path d="m875.16,776.7l0,239.71l8.54,0l0,-21.9l40.6,0l0,21.9l13.53,0l0,-239.71l-62.67,0z" fill="rgb(0, 0, 0)" id="svg_97" opacity="0.2"/>
  <path d="m930,994.51l-5.7,0l0,21.9l5.7,0l0,-21.9z" fill="rgb(134, 138, 145)" id="svg_98"/>
  <path d="m588,994.51l-5.7,0l0,21.9l5.7,0l0,-21.9z" fill="rgb(134, 138, 145)" id="svg_99"/>
  <path d="m740.6,763.97l-28.85,0l-24.62,-98.72l28.85,0l24.62,98.72z" fill="rgb(63, 66, 73)" id="svg_100"/>
  <path d="m740.6,763.97l-28.85,0l-24.62,-98.72l28.85,0l24.62,98.72z" fill="rgb(0, 0, 0)" id="svg_101" opacity="0.2"/>
  <path d="m738.6,763.97l-28.84,0l-24.63,-98.72l28.85,0l24.62,98.72z" fill="rgb(63, 66, 73)" id="svg_102"/>
  <path d="m735.61,743.97l-30.89,0l-1.29,-5.2l30.88,0l1.3,5.2z" fill="rgb(0, 0, 0)" id="svg_103" opacity="0.2"/>
  <path d="m795.43,638.03l-164.38,0l0,100.73l164.38,0l0,-100.73z" fill="rgb(63, 66, 73)" id="svg_104"/>
  <path d="m789.68,642.67l-152.88,0l0,91.44l152.88,0l0,-91.44z" fill="rgb(0, 0, 0)" id="svg_105" opacity="0.7" transform="matrix(1 0 0 1 0 0)"/>
  <path d="m797.68,638l-2.26,0l0,100.75l2.26,0l0,-100.75z" fill="rgb(63, 66, 73)" id="svg_106"/>
  <path d="m797.68,638l-2.26,0l0,100.75l2.26,0l0,-100.75z" fill="rgb(0, 0, 0)" id="svg_107" opacity="0.2"/>
  <path d="m777,760l-103.83,0l0,5.33l103.83,0l0,-5.33z" fill="rgb(63, 66, 73)" id="svg_108"/>
  <path class="change-color-in-svg" d="m705.38,649.37l-48.38,0l0,3.8l48.38,0l0,-3.8z" fill="rgb(43, 131, 252)" id="svg_109" transform="matrix(1 0 0 1 0 0)"/>
  <path class="change-color-in-svg" d="m683.97,655.85l-36.98,0l0,3.8l36.98,0l0,-3.8z" fill="rgb(43, 131, 252)" id="svg_110"/>
  <path class="change-color-in-svg" d="m700.22,662.32l-44.22,0l0,3.8l44.22,0l0,-3.8z" fill="rgb(43, 131, 252)" id="svg_111" transform="matrix(1 0 0 1 0 0)"/>
  <path class="change-color-in-svg" d="m691.77,668.8l-35.77,0l0,3.8l35.77,0l0,-3.8z" fill="rgb(43, 131, 252)" id="svg_112" transform="matrix(1 0 0 1 0 0)"/>
  <path class="change-color-in-svg" d="m687.56,674.8l-40.43,0l0,3.8l40.43,0l0,-3.8z" fill="rgb(43, 131, 252)" id="svg_113" transform="matrix(1 0 0 1 0 0)"/>
  <path class="change-color-in-svg" d="m684.16,681.46l-36.83,0l0,3.8l36.83,0l0,-3.8z" fill="rgb(43, 131, 252)" id="svg_114" transform="matrix(1 0 0 1 0 0)"/>
  <path class="change-color-in-svg" d="m693.37,689.14l-36.98,0l0,3.8l36.98,0l0,-3.8z" fill="rgb(43, 131, 252)" id="svg_115" transform="matrix(1 0 0 1 0 0)"/>
  <path class="change-color-in-svg" d="m700.41,696.01l-44.22,0l0,3.8l44.22,0l0,-3.8z" fill="rgb(43, 131, 252)" id="svg_116" transform="matrix(1 0 0 1 0 0)"/>
  <path class="change-color-in-svg" d="m691.96,702.28l-35.77,0l0,3.8l35.77,0l0,-3.8z" fill="rgb(43, 131, 252)" id="svg_117" transform="matrix(1 0 0 1 0 0)"/>
  <path class="change-color-in-svg" d="m698.97,708.96l-51.98,0l0,3.8l51.98,0l0,-3.8z" fill="rgb(43, 131, 252)" id="svg_118"/>
  <path class="change-color-in-svg" d="m691.47,716.18l-44.22,0l0,3.8l44.22,0l0,-3.8z" fill="rgb(43, 131, 252)" id="svg_119" transform="matrix(1 0 0 1 0 0)"/>
  <path class="change-color-in-svg" d="m706.17,723.6l-51.98,0l0,3.8l51.98,0l0,-3.8z" fill="rgb(43, 131, 252)" id="svg_120" transform="matrix(1 0 0 1 0 0)"/>
  <path d="m709.38,649.37l-48.38,0l0,3.8l48.38,0l0,-3.8z" fill="rgb(0, 0, 0)" id="svg_122" opacity="0.01" transform="matrix(1 0 0 1 0 0)"/>
  <path d="m683.97,655.85l-36.98,0l0,3.8l36.98,0l0,-3.8z" fill="rgb(0, 0, 0)" id="svg_123" opacity="0.01" transform="matrix(1 0 0 1 0 0) matrix(1 0 0 1 0 0)"/>
  <path d="m697.22,662.32l-44.22,0l0,3.8l44.22,0l0,-3.8z" fill="rgb(0, 0, 0)" id="svg_124" opacity="0.01" transform="matrix(1 0 0 1 0 0)"/>
  <path d="m692.77,668.8l-35.77,0l0,3.8l35.77,0l0,-3.8z" fill="rgb(0, 0, 0)" id="svg_125" opacity="0.01" transform="matrix(1 0 0 1 0 0)"/>
  <path d="m688.36,675.6l-40.43,0l0,3.8l40.43,0l0,-3.8z" fill="rgb(0, 0, 0)" id="svg_126" opacity="0.01" transform="matrix(1 0 0 1 0 0)"/>
  <path d="m687.76,682.46l-36.83,0l0,3.8l36.83,0l0,-3.8z" fill="rgb(0, 0, 0)" id="svg_127" opacity="0.01" transform="matrix(1 0 0 1 0 0)"/>
  <path d="m697.57,688.34l-36.98,0l0,3.8l36.98,0l0,-3.8z" fill="rgb(0, 0, 0)" id="svg_128" opacity="0.01" transform="matrix(1 0 0 1 0 0)"/>
  <path d="m701.01,695.41l-44.22,0l0,3.8l44.22,0l0,-3.8z" fill="rgb(0, 0, 0)" id="svg_129" opacity="0.01" transform="matrix(1 0 0 1 0 0)"/>
  <path d="m691.36,701.08l-35.77,0l0,3.8l35.77,0l0,-3.8z" fill="rgb(0, 0, 0)" id="svg_130" opacity="0.01" transform="matrix(1 0 0 1 0 0)"/>
  <path d="m698.97,708.96l-51.98,0l0,3.8l51.98,0l0,-3.8z" fill="rgb(0, 0, 0)" id="svg_131" opacity="0.04" transform="matrix(1 0 0 1 0 0) matrix(1 0 0 1 0 0)"/>
  <path d="m698.47,716.38l-44.22,0l0,3.8l44.22,0l0,-3.8z" fill="rgb(0, 0, 0)" id="svg_132" opacity="0.04" transform="matrix(1 0 0 1 0 0)"/>
  <path d="m706.97,723.6l-51.98,0l0,3.8l51.98,0l0,-3.8z" fill="rgb(0, 0, 0)" id="svg_133" opacity="0.04" transform="matrix(1 0 0 1 0 0)"/>
  <path class="change-color-in-svg" d="m768.04,649.37l-48.38,0l0,3.8l48.38,0l0,-3.8z" fill="rgb(43, 131, 252)" id="svg_134"/>
  <path class="change-color-in-svg" d="m764.24,655.85l-36.98,0l0,3.8l36.98,0l0,-3.8z" fill="rgb(43, 131, 252)" id="svg_135" transform="matrix(1 0 0 1 0 0)"/>
  <path class="change-color-in-svg" d="m771.08,662.12l-44.22,0l0,3.8l44.22,0l0,-3.8z" fill="rgb(43, 131, 252)" id="svg_136" transform="matrix(1 0 0 1 0 0)"/>
  <path class="change-color-in-svg" d="m755.43,668.8l-35.77,0l0,3.8l35.77,0l0,-3.8z" fill="rgb(43, 131, 252)" id="svg_137"/>
  <path class="change-color-in-svg" d="m760.43,675.47l-40.43,0l0,3.8l40.43,0l0,-3.8z" fill="rgb(43, 131, 252)" id="svg_138" transform="matrix(1 0 0 1 0 0)"/>
  <path class="change-color-in-svg" d="m756.83,682.26l-36.83,0l0,3.8l36.83,0l0,-3.8z" fill="rgb(43, 131, 252)" id="svg_139" transform="matrix(1 0 0 1 0 0)"/>
  <path class="change-color-in-svg" d="m763.64,688.94l-36.98,0l0,3.8l36.98,0l0,-3.8z" fill="rgb(43, 131, 252)" id="svg_140" transform="matrix(1 0 0 1 0 0)"/>
  <path class="change-color-in-svg" d="m771.08,695.61l-44.22,0l0,3.8l44.22,0l0,-3.8z" fill="rgb(43, 131, 252)" id="svg_141" transform="matrix(1 0 0 1 0 0)"/>
  <path class="change-color-in-svg" d="m762.83,701.88l-35.77,0l0,3.8l35.77,0l0,-3.8z" fill="rgb(43, 131, 252)" id="svg_142" transform="matrix(1 0 0 1 0 0)"/>
  <path class="change-color-in-svg" d="m771.64,708.96l-51.98,0l0,3.8l51.98,0l0,-3.8z" fill="rgb(43, 131, 252)" id="svg_143"/>
  <path class="change-color-in-svg" d="m764.14,716.18l-44.22,0l0,3.8l44.22,0l0,-3.8z" fill="rgb(43, 131, 252)" id="svg_144" transform="matrix(1 0 0 1 0 0)"/>
  <path class="change-color-in-svg" d="m778.44,723.2l-51.98,0l0,3.8l51.98,0l0,-3.8z" fill="rgb(43, 131, 252)" id="svg_145"/>
  <path d="m1239.36,442.44l-307.48,0l0,233.56l307.48,0l0,-233.56z" fill="rgb(255, 255, 255)" id="svg_159"/>
  <path d="m1239.36,442.44l-307.48,0l0,233.56l307.48,0l0,-233.56z" fill="rgb(0, 0, 0)" id="svg_160" opacity="0.13"/>
  <path d="m1222.36,455.44l-307.48,0l0,233.56l307.48,0l0,-233.56z" fill="rgb(255, 255, 255)" id="svg_161"/>
  <path d="m1222.36,455.44l-307.48,0l0,233.56l307.48,0l0,-233.56z" fill="rgb(0, 0, 0)" id="svg_162" opacity="0.08"/>
  <path d="m1206.36,472.44l-307.48,0l0,233.56l307.48,0l0,-233.56z" fill="rgb(255, 255, 255)" id="svg_163"/>
  <path class="change-color-in-svg" d="m1206.36,488.98l-307.48,0l0,1.5l307.48,0l0,-1.5z" fill="rgb(43, 131, 252)" id="svg_164"/>
  <path d="m1206.36,488.98l-307.36,0l0,1.5l307.36,0l0,-1.5z" fill="rgb(255, 255, 255)" id="svg_165" opacity="0.6"/>
  <path class="change-color-in-svg" d="m1207.11,706.75l-309,0l0,-235.06l309,0l0,235.06zm-307.48,-1.5l306,0l0,-232.06l-306,0l0,232.06z" fill="rgb(43, 131, 252)" id="svg_166"/>
  <path d="m1207.11,706.75l-309,0l0,-235.06l309,0l0,235.06zm-307.48,-1.5l306,0l0,-232.06l-306,0l0,232.06z" fill="rgb(255, 255, 255)" id="svg_167" opacity="0.6"/>
  <path class="change-color-in-svg" d="m909.27,481.08c0,0.41 -0.12,0.81 -0.35,1.16c-0.23,0.34 -0.56,0.6 -0.94,0.76c-0.38,0.16 -0.79,0.2 -1.2,0.12c-0.4,-0.08 -0.77,-0.28 -1.06,-0.57c-0.29,-0.29 -0.49,-0.66 -0.57,-1.06c-0.08,-0.41 -0.04,-0.83 0.12,-1.21c0.15,-0.38 0.42,-0.7 0.76,-0.93c0.35,-0.23 0.75,-0.35 1.16,-0.35c0.55,0 1.08,0.22 1.47,0.61c0.39,0.39 0.61,0.92 0.61,1.47l0,0z" fill="rgb(43, 131, 252)" id="svg_168"/>
  <path class="change-color-in-svg" d="m916.4,481.08c0,0.41 -0.12,0.81 -0.35,1.16c-0.23,0.34 -0.56,0.6 -0.94,0.76c-0.38,0.16 -0.79,0.2 -1.2,0.12c-0.4,-0.08 -0.77,-0.28 -1.06,-0.57c-0.29,-0.29 -0.49,-0.66 -0.57,-1.06c-0.08,-0.41 -0.04,-0.83 0.12,-1.21c0.15,-0.38 0.42,-0.7 0.76,-0.93c0.35,-0.23 0.75,-0.35 1.16,-0.35c0.55,0 1.08,0.22 1.47,0.61c0.39,0.39 0.61,0.92 0.61,1.47l0,0z" fill="rgb(43, 131, 252)" id="svg_169"/>
  <path class="change-color-in-svg" d="m923.42,481.08c0,0.41 -0.12,0.81 -0.35,1.16c-0.23,0.34 -0.55,0.6 -0.93,0.76c-0.38,0.16 -0.8,0.2 -1.2,0.12c-0.41,-0.08 -0.78,-0.28 -1.07,-0.57c-0.29,-0.29 -0.49,-0.66 -0.57,-1.06c-0.08,-0.41 -0.04,-0.83 0.12,-1.21c0.16,-0.38 0.42,-0.7 0.77,-0.93c0.34,-0.23 0.74,-0.35 1.15,-0.35c0.55,0 1.08,0.22 1.47,0.61c0.39,0.39 0.61,0.92 0.61,1.47l0,0z" fill="rgb(43, 131, 252)" id="svg_170"/>
  <path d="m909.27,481.08c0,0.41 -0.12,0.81 -0.35,1.16c-0.23,0.34 -0.56,0.6 -0.94,0.76c-0.38,0.16 -0.79,0.2 -1.2,0.12c-0.4,-0.08 -0.77,-0.28 -1.06,-0.57c-0.29,-0.29 -0.49,-0.66 -0.57,-1.06c-0.08,-0.41 -0.04,-0.83 0.12,-1.21c0.15,-0.38 0.42,-0.7 0.76,-0.93c0.35,-0.23 0.75,-0.35 1.16,-0.35c0.55,0 1.08,0.22 1.47,0.61c0.39,0.39 0.61,0.92 0.61,1.47l0,0z" fill="rgb(255, 255, 255)" id="svg_171" opacity="0.6"/>
  <path d="m916.4,481.08c0,0.41 -0.12,0.81 -0.35,1.16c-0.23,0.34 -0.56,0.6 -0.94,0.76c-0.38,0.16 -0.79,0.2 -1.2,0.12c-0.4,-0.08 -0.77,-0.28 -1.06,-0.57c-0.29,-0.29 -0.49,-0.66 -0.57,-1.06c-0.08,-0.41 -0.04,-0.83 0.12,-1.21c0.15,-0.38 0.42,-0.7 0.76,-0.93c0.35,-0.23 0.75,-0.35 1.16,-0.35c0.55,0 1.08,0.22 1.47,0.61c0.39,0.39 0.61,0.92 0.61,1.47l0,0z" fill="rgb(255, 255, 255)" id="svg_172" opacity="0.6"/>
  <path d="m923.42,481.08c0,0.41 -0.12,0.81 -0.35,1.16c-0.23,0.34 -0.55,0.6 -0.93,0.76c-0.38,0.16 -0.8,0.2 -1.2,0.12c-0.41,-0.08 -0.78,-0.28 -1.07,-0.57c-0.29,-0.29 -0.49,-0.66 -0.57,-1.06c-0.08,-0.41 -0.04,-0.83 0.12,-1.21c0.16,-0.38 0.42,-0.7 0.77,-0.93c0.34,-0.23 0.74,-0.35 1.15,-0.35c0.55,0 1.08,0.22 1.47,0.61c0.39,0.39 0.61,0.92 0.61,1.47l0,0z" fill="rgb(255, 255, 255)" id="svg_173" opacity="0.6"/>
  <path d="m923.27,526.07l-10.6,0l0,3.87l10.6,0l0,-3.87z" fill="rgb(218, 221, 223)" id="svg_174"/>
  <path d="m1088.37,526.07l-157.37,0l0,3.87l157.37,0l0,-3.87z" fill="rgb(218, 221, 223)" id="svg_175"/>
  <path class="change-color-in-svg" d="m1112.87,526.07l-18.51,0l0,3.87l18.51,0l0,-3.87z" fill="rgb(43, 131, 252)" id="svg_176"/>
  <path d="m1142.49,577.89l-18.51,0l0,3.87l18.51,0l0,-3.87z" fill="rgb(218, 221, 223)" id="svg_177"/>
  <path d="m1179.29,526.07l-62.4,0l0,3.87l62.4,0l0,-3.87z" fill="rgb(178, 182, 187)" id="svg_178"/>
  <path d="m933.87,536.43l-10.6,0l0,3.87l10.6,0l0,-3.87z" fill="rgb(218, 221, 223)" id="svg_179"/>
  <path d="m1013,536.43l-71.66,0l0,3.87l71.66,0l0,-3.87z" fill="rgb(178, 182, 187)" id="svg_180"/>
  <path d="m1119.58,577.89l-27.75,0l0,3.87l27.75,0l0,-3.87z" fill="rgb(178, 182, 187)" id="svg_181"/>
  <path d="m1007.24,567.53l-76.24,0l0,3.87l76.24,0l0,-3.87z" fill="rgb(178, 182, 187)" id="svg_182"/>
  <path class="change-color-in-svg" d="m994.82,546.8l-53.48,0l0,3.87l53.48,0l0,-3.87z" fill="rgb(43, 131, 252)" id="svg_183"/>
  <path d="m1155.88,557.16l-49.15,0l0,3.87l49.15,0l0,-3.87z" fill="rgb(178, 182, 187)" id="svg_184"/>
  <path d="m1119.19,546.8l-119.19,0l0,3.87l119.19,0l0,-3.87z" fill="rgb(178, 182, 187)" id="svg_185"/>
  <path class="change-color-in-svg" d="m1085.49,577.89l-154.49,0l0,3.87l154.49,0l0,-3.87z" fill="rgb(43, 131, 252)" id="svg_186"/>
  <path class="change-color-in-svg" d="m1196,536.43l-81.18,0l0,3.87l81.18,0l0,-3.87z" fill="rgb(43, 131, 252)" id="svg_187"/>
  <path d="m1110.8,536.43l-92.35,0l0,3.87l92.35,0l0,-3.87z" fill="rgb(218, 221, 223)" id="svg_188"/>
  <path d="m1184.82,546.8l-31.54,0l0,3.87l31.54,0l0,-3.87z" fill="rgb(218, 221, 223)" id="svg_189"/>
  <path d="m933.87,546.8l-10.6,0l0,3.87l10.6,0l0,-3.87z" fill="rgb(218, 221, 223)" id="svg_190"/>
  <path d="m923.27,557.16l-10.6,0l0,3.87l10.6,0l0,-3.87z" fill="rgb(178, 182, 187)" id="svg_191"/>
  <path d="m993.66,557.16l-62.66,0l0,3.87l62.66,0l0,-3.87z" fill="rgb(218, 221, 223)" id="svg_192"/>
  <path d="m1004,588.26l-62.66,0l0,3.87l62.66,0l0,-3.87z" fill="rgb(218, 221, 223)" id="svg_193"/>
  <path class="change-color-in-svg" d="m1167.66,598.62l-74.18,0l0,3.87l74.18,0l0,-3.87z" fill="rgb(43, 131, 252)" id="svg_194"/>
  <path class="change-color-in-svg" d="m1106.11,588.26l-97.11,0l0,3.87l97.11,0l0,-3.87z" fill="rgb(43, 131, 252)" id="svg_195"/>
  <path d="m1088.44,598.62l-116.44,0l0,3.87l116.44,0l0,-3.87z" fill="rgb(218, 221, 223)" id="svg_196"/>
  <path d="m959.48,598.62l-18.14,0l0,3.87l18.14,0l0,-3.87z" fill="rgb(178, 182, 187)" id="svg_197"/>
  <path d="m1112.86,567.53l-99.86,0l0,3.87l99.86,0l0,-3.87z" fill="rgb(218, 221, 223)" id="svg_198"/>
  <path class="change-color-in-svg" d="m1186.89,567.53l-70,0l0,3.87l70,0l0,-3.87z" fill="rgb(43, 131, 252)" id="svg_199"/>
  <path class="change-color-in-svg" d="m1102.2,557.16l-103.2,0l0,3.87l103.2,0l0,-3.87z" fill="rgb(43, 131, 252)" id="svg_200"/>
  <path d="m923.27,567.53l-10.6,0l0,3.87l10.6,0l0,-3.87z" fill="rgb(218, 221, 223)" id="svg_201"/>
  <path d="m923.27,577.89l-10.6,0l0,3.87l10.6,0l0,-3.87z" fill="rgb(218, 221, 223)" id="svg_202"/>
  <path d="m933.87,588.26l-10.6,0l0,3.87l10.6,0l0,-3.87z" fill="rgb(178, 182, 187)" id="svg_203"/>
  <path d="m933.87,598.62l-10.6,0l0,3.87l10.6,0l0,-3.87z" fill="rgb(218, 221, 223)" id="svg_204"/>
  <path d="m923.27,607.3l-10.6,0l0,3.87l10.6,0l0,-3.87z" fill="rgb(218, 221, 223)" id="svg_205"/>
  <path d="m1055.32,607.3l-124.32,0l0,3.87l124.32,0l0,-3.87z" fill="rgb(218, 221, 223)" id="svg_206"/>
  <path d="m933.87,617.67l-10.6,0l0,3.87l10.6,0l0,-3.87z" fill="rgb(218, 221, 223)" id="svg_207"/>
  <path d="m1021.16,617.67l-79.82,0l0,3.87l79.82,0l0,-3.87z" fill="rgb(178, 182, 187)" id="svg_208"/>
  <path d="m1007.24,648.76l-76.24,0l0,3.87l76.24,0l0,-3.87z" fill="rgb(178, 182, 187)" id="svg_209"/>
  <path class="change-color-in-svg" d="m994.82,628.03l-53.48,0l0,3.87l53.48,0l0,-3.87z" fill="rgb(43, 131, 252)" id="svg_210"/>
  <path d="m1119.19,628.03l-119.19,0l0,3.87l119.19,0l0,-3.87z" fill="rgb(178, 182, 187)" id="svg_211"/>
  <path class="change-color-in-svg" d="m1085.49,659.13l-154.49,0l0,3.87l154.49,0l0,-3.87z" fill="rgb(43, 131, 252)" id="svg_212"/>
  <path class="change-color-in-svg" d="m1196,617.67l-81.18,0l0,3.87l81.18,0l0,-3.87z" fill="rgb(43, 131, 252)" id="svg_213"/>
  <path d="m1110.8,617.67l-84.8,0l0,3.87l84.8,0l0,-3.87z" fill="rgb(218, 221, 223)" id="svg_214"/>
  <path d="m1184.82,628.03l-31.54,0l0,3.87l31.54,0l0,-3.87z" fill="rgb(218, 221, 223)" id="svg_215"/>
  <path d="m933.87,628.03l-10.6,0l0,3.87l10.6,0l0,-3.87z" fill="rgb(218, 221, 223)" id="svg_216"/>
  <path d="m923.27,638.4l-10.6,0l0,3.87l10.6,0l0,-3.87z" fill="rgb(178, 182, 187)" id="svg_217"/>
  <path d="m993.66,638.4l-62.66,0l0,3.87l62.66,0l0,-3.87z" fill="rgb(218, 221, 223)" id="svg_218"/>
  <path d="m1112.86,648.76l-100.86,0l0,3.87l100.86,0l0,-3.87z" fill="rgb(218, 221, 223)" id="svg_219"/>
  <path class="change-color-in-svg" d="m1102.2,638.4l-103.2,0l0,3.87l103.2,0l0,-3.87z" fill="rgb(43, 131, 252)" id="svg_220"/>
  <path d="m923.27,648.76l-10.6,0l0,3.87l10.6,0l0,-3.87z" fill="rgb(218, 221, 223)" id="svg_221"/>
  <path class="change-color-in-svg" d="m922.93,516.33l3.56,-8.48c0.04,-0.1 0.1,-0.19 0.18,-0.26c0.07,-0.07 0.16,-0.13 0.26,-0.17c0.1,-0.04 0.21,-0.06 0.31,-0.06c0.11,0 0.21,0.03 0.31,0.07c0.18,0.08 0.33,0.23 0.41,0.42c0.07,0.18 0.07,0.39 0,0.58l-3.57,8.5c-0.06,0.14 -0.17,0.26 -0.3,0.35c-0.13,0.08 -0.28,0.13 -0.44,0.13c-0.1,0 -0.2,-0.02 -0.29,-0.06c-0.1,-0.04 -0.18,-0.1 -0.26,-0.17c-0.07,-0.07 -0.13,-0.16 -0.17,-0.25c-0.04,-0.1 -0.06,-0.2 -0.06,-0.3c0,-0.1 0.02,-0.21 0.06,-0.3l0,0z" fill="rgb(43, 131, 252)" id="svg_222"/>
  <path class="change-color-in-svg" d="m935,512.91c-0.03,0.04 -0.07,0.07 -0.11,0.1l-4.09,4.15c-0.17,0.17 -0.41,0.26 -0.65,0.26c-0.24,0 -0.48,-0.09 -0.65,-0.26c-0.09,-0.09 -0.16,-0.19 -0.21,-0.3c-0.04,-0.11 -0.07,-0.23 -0.07,-0.36c0,-0.12 0.03,-0.24 0.07,-0.35c0.05,-0.11 0.12,-0.22 0.21,-0.3l3.44,-3.48l-3.44,-3.48c-0.09,-0.09 -0.16,-0.19 -0.21,-0.3c-0.04,-0.11 -0.07,-0.23 -0.07,-0.36c0,-0.12 0.03,-0.24 0.07,-0.35c0.05,-0.11 0.12,-0.22 0.21,-0.3c0.18,-0.17 0.41,-0.26 0.65,-0.26c0.24,0 0.48,0.09 0.65,0.26l4.09,4.15c0.04,0.03 0.08,0.06 0.11,0.1c0,0 0,0 0,0c0.03,0.04 0.05,0.08 0.07,0.13c0,0 0,0 0,0c0,0.04 0,0.09 0,0.13c0,0 0,0 0,0.05l0,0.1c0,0 0,0 0,0.07l0,0.19c0,0.04 0,0.09 0,0.13c0,0 0,0 0,0c-0.01,0.1 -0.03,0.19 -0.07,0.28z" fill="rgb(43, 131, 252)" id="svg_223"/>
  <path class="change-color-in-svg" d="m923.93,681.33l3.56,-8.48c0.04,-0.1 0.1,-0.19 0.18,-0.26c0.07,-0.07 0.16,-0.13 0.26,-0.17c0.1,-0.04 0.21,-0.06 0.31,-0.06c0.11,0 0.21,0.03 0.31,0.07c0.18,0.08 0.33,0.23 0.41,0.42c0.07,0.18 0.07,0.39 0,0.58l-3.57,8.5c-0.06,0.14 -0.17,0.26 -0.3,0.35c-0.13,0.08 -0.28,0.13 -0.44,0.13c-0.1,0 -0.2,-0.02 -0.29,-0.06c-0.1,-0.04 -0.18,-0.1 -0.26,-0.17c-0.07,-0.07 -0.13,-0.16 -0.17,-0.25c-0.04,-0.1 -0.06,-0.2 -0.06,-0.3c0,-0.1 0.02,-0.21 0.06,-0.3l0,0z" fill="rgb(43, 131, 252)" id="svg_224"/>
  <path class="change-color-in-svg" d="m936,677.91c-0.03,0.04 -0.07,0.07 -0.11,0.1l-4.09,4.15c-0.17,0.17 -0.41,0.26 -0.65,0.26c-0.24,0 -0.48,-0.09 -0.65,-0.26c-0.09,-0.09 -0.16,-0.19 -0.21,-0.3c-0.04,-0.11 -0.07,-0.23 -0.07,-0.36c0,-0.12 0.03,-0.24 0.07,-0.35c0.05,-0.11 0.12,-0.22 0.21,-0.3l3.44,-3.48l-3.44,-3.48c-0.09,-0.09 -0.16,-0.19 -0.21,-0.3c-0.04,-0.11 -0.07,-0.23 -0.07,-0.36c0,-0.12 0.03,-0.24 0.07,-0.35c0.05,-0.11 0.12,-0.22 0.21,-0.3c0.18,-0.17 0.41,-0.26 0.65,-0.26c0.24,0 0.48,0.09 0.65,0.26l4.09,4.15c0.04,0.03 0.08,0.06 0.11,0.1c0,0 0,0 0,0c0.03,0.04 0.05,0.08 0.07,0.13c0,0 0,0 0,0c0,0.04 0,0.09 0,0.13c0,0 0,0 0,0.05l0,0.1c0,0 0,0 0,0.07l0,0.19c0,0.04 0,0.09 0,0.13c0,0 0,0 0,0c-0.01,0.1 -0.03,0.19 -0.07,0.28l0,0z" fill="rgb(43, 131, 252)" id="svg_225"/>
  <path d="m1112.87,526.07l-18.51,0l0,3.87l18.51,0l0,-3.87z" fill="rgb(255, 255, 255)" id="svg_226" opacity="0.4"/>
  <path d="m994.82,546.8l-53.48,0l0,3.87l53.48,0l0,-3.87z" fill="rgb(255, 255, 255)" id="svg_227" opacity="0.4"/>
  <path d="m1085.49,577.89l-154.49,0l0,3.87l154.49,0l0,-3.87z" fill="rgb(255, 255, 255)" id="svg_228" opacity="0.4"/>
  <path d="m1196,536.43l-81.18,0l0,3.87l81.18,0l0,-3.87z" fill="rgb(255, 255, 255)" id="svg_229" opacity="0.4"/>
  <path d="m1167.66,598.62l-74.18,0l0,3.87l74.18,0l0,-3.87z" fill="rgb(255, 255, 255)" id="svg_230" opacity="0.4"/>
  <path d="m1106.11,588.26l-97.11,0l0,3.87l97.11,0l0,-3.87z" fill="rgb(255, 255, 255)" id="svg_231" opacity="0.4"/>
  <path d="m1186.89,567.53l-70,0l0,3.87l70,0l0,-3.87z" fill="rgb(255, 255, 255)" id="svg_232" opacity="0.4"/>
  <path d="m1102.2,557.16l-103.2,0l0,3.87l103.2,0l0,-3.87z" fill="rgb(255, 255, 255)" id="svg_233" opacity="0.4"/>
  <path d="m994.82,628.03l-53.48,0l0,3.87l53.48,0l0,-3.87z" fill="rgb(255, 255, 255)" id="svg_234" opacity="0.4"/>
  <path d="m1085.49,659.13l-154.49,0l0,3.87l154.49,0l0,-3.87z" fill="rgb(255, 255, 255)" id="svg_235" opacity="0.4"/>
  <path d="m1196,617.67l-81.18,0l0,3.87l81.18,0l0,-3.87z" fill="rgb(255, 255, 255)" id="svg_236" opacity="0.4"/>
  <path d="m1102.2,638.4l-103.2,0l0,3.87l103.2,0l0,-3.87z" fill="rgb(255, 255, 255)" id="svg_237" opacity="0.4"/>
  <g id="svg_238" opacity="0.4">
   <path d="m922.93,516.33l3.56,-8.48c0.04,-0.1 0.1,-0.19 0.18,-0.26c0.07,-0.07 0.16,-0.13 0.26,-0.17c0.1,-0.04 0.21,-0.06 0.31,-0.06c0.11,0 0.21,0.03 0.31,0.07c0.18,0.08 0.33,0.23 0.41,0.42c0.07,0.18 0.07,0.39 0,0.58l-3.57,8.5c-0.06,0.14 -0.17,0.26 -0.3,0.35c-0.13,0.08 -0.28,0.13 -0.44,0.13c-0.1,0 -0.2,-0.02 -0.29,-0.06c-0.1,-0.04 -0.18,-0.1 -0.26,-0.17c-0.07,-0.07 -0.13,-0.16 -0.17,-0.25c-0.04,-0.1 -0.06,-0.2 -0.06,-0.3c0,-0.1 0.02,-0.21 0.06,-0.3l0,0z" fill="rgb(255, 255, 255)" id="svg_239" opacity="0.4"/>
   <path d="m935,512.91c-0.03,0.04 -0.07,0.07 -0.11,0.1l-4.09,4.15c-0.18,0.17 -0.41,0.26 -0.65,0.26c-0.24,0 -0.48,-0.09 -0.65,-0.26c-0.09,-0.09 -0.16,-0.19 -0.21,-0.3c-0.05,-0.11 -0.07,-0.23 -0.07,-0.36c0,-0.12 0.02,-0.24 0.07,-0.35c0.05,-0.11 0.12,-0.22 0.21,-0.3l3.44,-3.48l-3.44,-3.48c-0.09,-0.09 -0.16,-0.19 -0.21,-0.3c-0.05,-0.11 -0.07,-0.23 -0.07,-0.36c0,-0.12 0.02,-0.24 0.07,-0.35c0.05,-0.11 0.12,-0.22 0.21,-0.3c0.17,-0.17 0.41,-0.26 0.65,-0.26c0.24,0 0.47,0.09 0.65,0.26l4.09,4.15c0.04,0.03 0.08,0.06 0.11,0.1c0,0 0,0 0,0c0.02,0.04 0.05,0.08 0.07,0.13c0,0 0,0 0,0c-0.01,0.04 -0.01,0.09 0,0.13c0,0 0,0 0,0.05l0,0.1c0,0 0,0 0,0.07l0,0.19c-0.01,0.04 -0.01,0.09 0,0.13c0,0 0,0 0,0c-0.01,0.1 -0.03,0.19 -0.07,0.28z" fill="rgb(255, 255, 255)" id="svg_240" opacity="0.4"/>
  </g>
  <g id="svg_241" opacity="0.4">
   <path d="m923.93,681.33l3.56,-8.48c0.04,-0.1 0.1,-0.19 0.18,-0.26c0.07,-0.07 0.16,-0.13 0.26,-0.17c0.1,-0.04 0.21,-0.06 0.31,-0.06c0.11,0 0.21,0.03 0.31,0.07c0.18,0.08 0.33,0.23 0.41,0.42c0.07,0.18 0.07,0.39 0,0.58l-3.57,8.5c-0.06,0.14 -0.17,0.26 -0.3,0.35c-0.13,0.08 -0.28,0.13 -0.44,0.13c-0.1,0 -0.2,-0.02 -0.29,-0.06c-0.1,-0.04 -0.18,-0.1 -0.26,-0.17c-0.07,-0.07 -0.13,-0.16 -0.17,-0.25c-0.04,-0.1 -0.06,-0.2 -0.06,-0.3c0,-0.1 0.02,-0.21 0.06,-0.3l0,0z" fill="rgb(255, 255, 255)" id="svg_242" opacity="0.4"/>
   <path d="m936,677.91c-0.03,0.04 -0.07,0.07 -0.11,0.1l-4.09,4.15c-0.18,0.17 -0.41,0.26 -0.65,0.26c-0.24,0 -0.48,-0.09 -0.65,-0.26c-0.09,-0.09 -0.16,-0.19 -0.21,-0.3c-0.05,-0.11 -0.07,-0.23 -0.07,-0.36c0,-0.12 0.02,-0.24 0.07,-0.35c0.05,-0.11 0.12,-0.22 0.21,-0.3l3.44,-3.48l-3.44,-3.48c-0.09,-0.09 -0.16,-0.19 -0.21,-0.3c-0.05,-0.11 -0.07,-0.23 -0.07,-0.36c0,-0.12 0.02,-0.24 0.07,-0.35c0.05,-0.11 0.12,-0.22 0.21,-0.3c0.17,-0.17 0.41,-0.26 0.65,-0.26c0.24,0 0.47,0.09 0.65,0.26l4.09,4.15c0.04,0.03 0.08,0.06 0.11,0.1c0,0 0,0 0,0c0.02,0.04 0.05,0.08 0.07,0.13c0,0 0,0 0,0c-0.01,0.04 -0.01,0.09 0,0.13c0,0 0,0 0,0.05l0,0.1c0,0 0,0 0,0.07l0,0.19c-0.01,0.04 -0.01,0.09 0,0.13c0,0 0,0 0,0c-0.01,0.1 -0.03,0.19 -0.07,0.28l0,0z" fill="rgb(255, 255, 255)" id="svg_243" opacity="0.4"/>
  </g>
  <path d="m668.32,943.18c-3.44,9.3 -7.77,19.39 -9.38,26.38c-0.56,2.4 -0.73,4.87 0.67,6.9l19.94,30.08c6.42,16.44 -34,-19.25 -38.65,-21.2l-1.38,-0.59c-5.27,-2.22 -21.41,-8.33 -13.74,-17.67l5.33,-8.53c2.55,-4.74 6.39,-17 8.76,-23.61l28.45,8.24z" fill="rgb(252, 157, 157)" id="svg_244"/>
  <path d="m654.65,926.64l-2.82,-10.39l-12.3,18.92c-2.37,6.61 -5.87,18.64 -8.42,23.38l-5.33,8.53c-2.63,3.21 -2.64,5.93 -1.29,8.2l6.09,2.89c11.88,-23.77 24.07,-51.53 24.07,-51.53z" fill="rgb(0, 0, 0)" id="svg_245" opacity="0.15"/>
  <path d="m635.3,979.18c0.38,0 0.75,-0.15 1.02,-0.42c0.27,-0.27 0.42,-0.64 0.42,-1.02c0,-0.38 -0.15,-0.75 -0.42,-1.02c-0.27,-0.27 -0.64,-0.42 -1.02,-0.42c-0.38,0 -0.75,0.15 -1.02,0.42c-0.27,0.27 -0.42,0.64 -0.42,1.02c0,0.38 0.15,0.75 0.42,1.02c0.27,0.27 0.64,0.42 1.02,0.42l0,0z" fill="rgb(252, 157, 157)" id="svg_246"/>
  <path d="m561.68,792.21l149.22,0c3.63,0 7.21,0.94 10.38,2.72c3.16,1.79 5.82,4.35 7.71,7.46c1.89,3.1 2.95,6.64 3.07,10.27c0.13,3.64 -0.68,7.24 -2.35,10.47l-67.78,143.32l-30.22,-13.66l35.53,-109.48l-84.57,0l-20.99,-51.1z" fill="rgb(63, 66, 73)" id="svg_247"/>
  <path d="m561.68,792.21l138.93,0c1.5,0.01 2.98,0.38 4.3,1.09c1.32,0.72 2.45,1.74 3.28,3c0.83,1.25 1.34,2.69 1.48,4.18c0.14,1.5 -0.09,3.01 -0.67,4.39l-1.87,4.4l0.72,1c3.47,5 5,12.88 6.14,19.34l3,17c0.02,0.09 0.01,0.17 -0.01,0.26c-0.01,0.09 -0.05,0.17 -0.1,0.24c-0.05,0.07 -0.11,0.13 -0.19,0.18c-0.07,0.05 -0.15,0.08 -0.24,0.09l-0.11,0c-0.16,0 -0.31,-0.05 -0.43,-0.15c-0.12,-0.1 -0.2,-0.24 -0.23,-0.4l-3,-16.94c-1.14,-6.41 -2.67,-14.21 -6.16,-19.15l-61.61,147.74l-13.2,-5.69l35.53,-109.48l-84.57,0l-20.99,-51.1z" fill="rgb(0, 0, 0)" id="svg_248" opacity="0.3"/>
  <path d="m733.59,958.18c2.12,9.69 3.92,20.52 6.33,27.27c0.83,2.33 2,4.49 4.29,5.44l33,14.58c14.28,10.38 -39,2.15 -44,3l-1.48,0.25c-5.64,1 -22.52,4.53 -21.1,-7.47l-0.12,-10.06c-0.41,-5.36 -3.79,-17.75 -5.36,-24.6l28.44,-8.41z" fill="rgb(252, 157, 157)" id="svg_249"/>
  <path d="m713.15,951.63l-8,-7.23l-0.15,22.6c1.57,6.84 5.11,18.86 5.52,24.22l0.12,10.06c-0.49,4.13 1,6.42 3.33,7.6l6.69,-0.85c-2.79,-26.45 -7.51,-56.4 -7.51,-56.4z" fill="rgb(0, 0, 0)" id="svg_250" opacity="0.15"/>
  <path d="m724.43,1006.53c0.38,0 0.75,-0.15 1.02,-0.42c0.27,-0.27 0.42,-0.64 0.42,-1.02c0,-0.38 -0.15,-0.75 -0.42,-1.02c-0.27,-0.27 -0.64,-0.42 -1.02,-0.42c-0.38,0 -0.75,0.15 -1.02,0.42c-0.27,0.27 -0.42,0.64 -0.42,1.02c0,0.38 0.15,0.75 0.42,1.02c0.27,0.27 0.64,0.42 1.02,0.42l0,0z" fill="rgb(252, 157, 157)" id="svg_251"/>
  <path d="m514.69,823.48l2.89,3.06c5.05,5.31 11.11,9.56 17.83,12.5c6.72,2.93 13.95,4.49 21.28,4.59l108,1.41l42.57,138.35l32.74,-6.39l-29.21,-156c-1.01,-5.52 -3.78,-10.58 -7.88,-14.41c-4.1,-3.84 -9.33,-6.26 -14.91,-6.9l-98.65,-11.38l-74.66,35.17z" fill="rgb(63, 66, 73)" id="svg_252"/>
  <path d="m539.65,811.72c9.08,12.94 28.58,17.73 43.46,17.89l85.89,2.57c2.87,0.08 5.64,1.09 7.9,2.87c2.25,1.78 3.87,4.24 4.62,7.01l36.48,138.94l-10.77,2.39l-42.57,-138.39l-103.76,-1.32c-8.66,-0.11 -17.21,-1.96 -25.15,-5.43c-7.93,-3.47 -15.09,-8.5 -21.06,-14.78l24.96,-11.75z" fill="rgb(0, 0, 0)" id="svg_253" opacity="0.3"/>
  <path class="change-color-in-svg" d="m521.31,674.51l-38.74,63.18c-1.27,2.07 -1.96,4.43 -2,6.86c-0.05,2.42 0.55,4.81 1.73,6.93c1.19,2.11 2.91,3.87 5,5.1c2.09,1.22 4.47,1.87 6.9,1.87l40.21,0l-13.1,-83.94z" fill="rgb(43, 131, 252)" id="svg_254"/>
  <path d="m593.34,614.22l3.38,20.2c0.17,1 5.63,5.81 5.54,7.47c0.02,0.84 -0.26,1.66 -0.78,2.31c-0.52,0.66 -1.25,1.11 -2.07,1.28c-1.34,0.3 -1.71,0.1 -1.71,0.1l-2.48,10.72c-1.18,5.67 -4.93,10.3 -12.11,9l-6.6,-1l-7.15,17l-26.64,-19.7l7.34,-21.83l9.35,-30.89l33.93,5.34z" fill="rgb(252, 157, 157)" id="svg_255"/>
  <path d="m545.31,607.72c3.33,-6.52 7.59,-8.78 14.22,-8.36c0.53,-0.02 1.05,-0.19 1.49,-0.48c0.45,-0.29 0.81,-0.69 1.05,-1.17c1.31,-2.24 4.62,-6.08 11.76,-5.74c2.04,0.03 4.04,0.57 5.81,1.59c1.76,1.01 3.25,2.46 4.3,4.2c0.45,0.68 1.12,1.18 1.91,1.41c0.78,0.22 1.62,0.16 2.36,-0.19c1.53,-0.7 3.23,-0.99 4.91,-0.85c1.68,0.14 3.29,0.72 4.69,1.67c7.44,4.71 4.36,17.55 -3.58,18.7l-6.35,0.64c-0.58,0.06 -1.12,0.33 -1.53,0.74c-0.4,0.42 -0.65,0.97 -0.69,1.55c-0.1,1.13 -0.42,2.22 -0.93,3.23c-0.83,1.67 -2.16,3.04 -3.79,3.93c-1.63,0.89 -3.5,1.27 -5.35,1.07c-0.21,-0.01 -0.42,0.01 -0.61,0.08c-0.2,0.07 -0.37,0.18 -0.52,0.33c-0.15,0.14 -0.27,0.31 -0.35,0.51c-0.08,0.19 -0.12,0.39 -0.11,0.6l0.12,7.14c0.01,0.37 -0.09,0.73 -0.27,1.05c-0.19,0.32 -0.47,0.58 -0.8,0.74c-0.23,0.11 -0.49,0.17 -0.75,0.17c-0.26,0 -0.52,-0.05 -0.75,-0.15c-0.24,-0.1 -0.46,-0.25 -0.63,-0.45c-0.18,-0.19 -0.31,-0.41 -0.39,-0.66l-1.53,-4.74c-0.27,-0.79 -0.76,-1.49 -1.41,-2.01c-0.66,-0.53 -1.45,-0.85 -2.28,-0.93l-1.87,-0.18c-1.81,2.71 -3.47,5.75 -5,8.1c-1,1.62 -2.26,3.06 -3.72,4.28c-2.66,2.06 -4.84,1.38 -6.19,-1.37c0,0 -8.43,-17.78 -4.51,-31c0.34,-1.18 0.79,-2.32 1.35,-3.41" fill="rgb(0, 0, 0)" id="svg_256"/>
  <path d="m554.67,643.54l5.27,0.55l0.56,0.3c1.83,0.91 4.88,2.1 7.37,1.42c0.18,-0.05 0.33,-0.17 0.41,-0.33c0.09,-0.16 0.11,-0.35 0.06,-0.53c-0.05,-0.17 -0.17,-0.32 -0.33,-0.41c-0.16,-0.09 -0.34,-0.11 -0.52,-0.06c-0.41,0.11 -0.84,0.16 -1.27,0.16l-7.84,-5.38c-1,1.61 -2.25,3.06 -3.71,4.28" fill="rgb(0, 0, 0)" id="svg_257" opacity="0.15"/>
  <path d="m566.32,630.41c-0.3,-0.64 -0.74,-1.21 -1.28,-1.67c-0.55,-0.46 -1.19,-0.79 -1.87,-0.97c-0.69,-0.18 -1.41,-0.22 -2.1,-0.09c-0.71,0.12 -1.37,0.39 -1.95,0.8c-5.59,3.23 -3,16.49 7.1,16.16c5.28,-0.18 3.88,-3.06 2.55,-7l-2.45,-7.23z" fill="rgb(252, 157, 157)" id="svg_258"/>
  <path d="m559.21,632c0.37,-0.36 0.81,-0.64 1.29,-0.82c0.48,-0.18 0.99,-0.27 1.5,-0.24c0.5,0.08 0.98,0.26 1.41,0.54c0.42,0.27 0.79,0.63 1.07,1.05c0.76,1.04 1.24,2.26 1.39,3.54l0.22,1.16c0.02,0.16 -0.02,0.32 -0.12,0.45c-0.1,0.13 -0.25,0.22 -0.41,0.24c-0.08,0.01 -0.16,0.01 -0.24,-0.01c-0.08,-0.02 -0.15,-0.06 -0.22,-0.11c-0.06,-0.05 -0.11,-0.11 -0.15,-0.18c-0.04,-0.07 -0.07,-0.15 -0.08,-0.23l-0.23,-1.16c-0.14,-1.07 -0.53,-2.1 -1.14,-3c-0.37,-0.57 -0.96,-0.97 -1.63,-1.12c-0.35,-0.01 -0.69,0.06 -1.01,0.19c-0.32,0.13 -0.62,0.33 -0.86,0.58c-0.12,0.1 -0.28,0.16 -0.44,0.14c-0.16,-0.01 -0.31,-0.09 -0.42,-0.21c-0.1,-0.12 -0.16,-0.28 -0.14,-0.45c0.01,-0.16 0.09,-0.31 0.21,-0.41" fill="rgb(0, 0, 0)" id="svg_259" opacity="0.15"/>
  <path class="change-color-in-svg" d="m514.69,823.49c19.61,1.73 39.11,-4.39 54.22,-17l20.15,-16.82l-20.21,-48.82l31.45,-34.85l-1.5,-4.48c-2.44,-7.35 -7.45,-13.57 -14.11,-17.52l-7.7,-4.57l-2.23,-8.54l-29.82,-19l-4.88,8.9c-7.07,2.11 -13.34,6.32 -17.96,12.08c-4.63,5.75 -7.39,12.77 -7.94,20.13l-7.31,78.91c-0.94,12.67 -1.2,24.52 2.09,38.49c0.7,3.01 1.81,5.9 3.29,8.61l2.46,4.48z" fill="rgb(43, 131, 252)" id="svg_260"/>
  <path d="m589.06,789.68l-21.61,-52.2c-0.04,-0.13 -0.11,-0.24 -0.2,-0.35c-0.09,-0.1 -0.19,-0.18 -0.31,-0.24c-0.12,-0.06 -0.25,-0.1 -0.39,-0.11c-0.13,-0.01 -0.26,0.01 -0.39,0.05c-0.13,0.04 -0.25,0.11 -0.35,0.2c-0.1,0.08 -0.18,0.19 -0.24,0.31c-0.06,0.12 -0.1,0.25 -0.11,0.38c-0.01,0.14 0.01,0.27 0.05,0.4l15.89,57.4l7.66,-5.84z" fill="rgb(0, 0, 0)" id="svg_261" opacity="0.2"/>
  <path d="m577,680.23c0.14,0 0.28,-0.03 0.4,-0.1c0.12,-0.08 0.22,-0.18 0.29,-0.3c0.1,-0.18 0.12,-0.4 0.07,-0.6c-0.06,-0.2 -0.19,-0.37 -0.37,-0.47l-31.7,-17.76c-0.09,-0.05 -0.19,-0.08 -0.3,-0.1c-0.1,-0.01 -0.21,0 -0.31,0.03c-0.1,0.03 -0.19,0.08 -0.27,0.14c-0.08,0.07 -0.15,0.15 -0.2,0.24c-0.05,0.09 -0.08,0.19 -0.1,0.29c-0.01,0.11 0,0.21 0.03,0.31c0.03,0.1 0.08,0.19 0.14,0.27c0.07,0.08 0.15,0.15 0.24,0.2l31.7,17.81c0.12,0.06 0.25,0.09 0.38,0.09" fill="rgb(0, 0, 0)" id="svg_262" opacity="0.2"/>
  <path d="m514.71,690.73l-14.41,67.72l7.79,0l7.53,-67.58c0.02,-0.12 -0.01,-0.24 -0.08,-0.34c-0.07,-0.1 -0.18,-0.17 -0.3,-0.19c-0.13,-0.01 -0.25,0.02 -0.35,0.09c-0.1,0.07 -0.16,0.18 -0.18,0.3z" fill="rgb(0, 0, 0)" id="svg_263" opacity="0.2"/>
  <path d="m576.5,664.28l-4.2,-0.78c-0.23,-0.05 -0.48,-0.02 -0.7,0.08c-0.21,0.1 -0.4,0.27 -0.51,0.48c-0.12,0.21 -0.18,0.45 -0.15,0.68c0.02,0.24 0.12,0.47 0.28,0.65l3.4,2.89l1.88,-4z" fill="rgb(0, 0, 0)" id="svg_264" opacity="0.15"/>
  <path d="m672.16,748l-56.88,11.94l-4,-14.24l-34.43,13.94l9,26.81c3.22,6.45 7.86,10.92 15.83,10.54c11.91,-0.56 92.31,-38 92.31,-38l-6.21,-13.36l-10.73,1.38" fill="rgb(252, 157, 157)" id="svg_265"/>
  <path d="m593,633.38c0.36,-1.27 0,-2.51 -1.1,-2.85c-1.1,-0.34 -2.11,0.3 -2.56,1.45c-0.45,1.15 0,2.51 1.09,2.85c0.27,0.08 0.54,0.1 0.81,0.07c0.28,-0.04 0.54,-0.12 0.78,-0.26c0.24,-0.13 0.45,-0.31 0.62,-0.53c0.17,-0.22 0.29,-0.46 0.36,-0.73l0,0z" fill="rgb(0, 0, 0)" id="svg_266"/>
  <path d="m592.59,633.58c0.01,-0.11 -0.03,-0.22 -0.1,-0.31c-0.07,-0.09 -0.17,-0.15 -0.28,-0.17c-0.11,0 -0.22,0.03 -0.31,0.1c-0.08,0.07 -0.15,0.17 -0.17,0.28c0,0.11 0.03,0.22 0.1,0.31c0.07,0.09 0.17,0.15 0.28,0.17c0.11,0.01 0.23,-0.03 0.31,-0.1c0.09,-0.07 0.15,-0.17 0.17,-0.28l0,0z" fill="rgb(255, 255, 255)" id="svg_267"/>
  <path d="m595.59,627.5c-0.24,0.38 -1.9,-0.11 -3.93,-0.26c-2.03,-0.15 -3.73,0 -3.93,-0.36c-0.08,-0.2 0.26,-0.53 1,-0.81c0.98,-0.33 2.02,-0.46 3.05,-0.38c1.03,0.08 2.04,0.37 2.95,0.86c0.66,0.39 0.97,0.77 0.86,0.95z" fill="rgb(0, 0, 0)" id="svg_268"/>
  <path d="m596.57,650.46c-1.61,0.16 -3.24,0.1 -4.84,-0.18c-0.35,-0.08 -0.42,0.42 -0.18,0.75c1.09,1.33 2.62,2.21 4.31,2.48l0.71,-3.05z" fill="rgb(255, 255, 255)" id="svg_269"/>
  <path d="m720,756c0,0 -16.32,2.9 -25.64,2.12l-1.36,-5.12l15.71,-0.86l11.29,3.86z" fill="rgb(252, 157, 157)" id="svg_270"/>
  <path d="m720,756c0,0 -16.32,2.9 -25.64,2.12l-1.36,-5.12l15.71,-0.86l11.29,3.86z" fill="rgb(0, 0, 0)" id="svg_271" opacity="0.15"/>
  <path d="m708.85,747.82l11.09,2.46l6.82,13.12c0.15,0.31 0.2,0.66 0.13,1l0,0c-0.04,0.2 -0.12,0.38 -0.24,0.55c-0.11,0.16 -0.26,0.31 -0.43,0.41c-0.17,0.11 -0.36,0.18 -0.56,0.22c-0.2,0.03 -0.4,0.03 -0.6,-0.02l0,0c-0.66,-0.14 -1.24,-0.54 -1.61,-1.1l-5.81,-9.25l-5.06,-1.33l-3.73,-6.06z" fill="rgb(252, 157, 157)" id="svg_272"/>
  <path d="m731.76,759.23c0.01,0.24 -0.03,0.48 -0.12,0.71c-0.08,0.23 -0.21,0.43 -0.38,0.61c-0.17,0.17 -0.36,0.32 -0.59,0.41c-0.22,0.1 -0.46,0.15 -0.7,0.16l0,0c-0.59,0.02 -1.18,-0.15 -1.68,-0.48l-4.51,-3l-3.84,-7.4l11,7.51c0.25,0.16 0.45,0.38 0.59,0.64c0.15,0.26 0.23,0.54 0.23,0.84l0,0z" fill="rgb(252, 157, 157)" id="svg_273"/>
  <path d="m720.56,759.89l-2.42,-6.33l-9.29,-5.74l3.73,6.1l5.06,1.33l2.92,4.64z" fill="rgb(0, 0, 0)" id="svg_274" opacity="0.15"/>
  <path d="m719.94,750.28l13.24,2.94c0.23,0.05 0.45,0.16 0.62,0.32c0.18,0.16 0.31,0.36 0.38,0.59l0,0c0.1,0.31 0.09,0.65 -0.04,0.95c-0.13,0.31 -0.37,0.55 -0.67,0.69l-0.08,0c-0.29,0.14 -0.61,0.19 -0.93,0.13l-5.7,-1l-6.82,-4.62z" fill="rgb(252, 157, 157)" id="svg_275"/>
  <path d="m725.66,758.92l-5.72,-8.64l3.84,7.4l1.88,1.24z" fill="rgb(0, 0, 0)" id="svg_276" opacity="0.15"/>
  <path d="m728.9,755.4l-2.14,-0.47l-6.3,-4.53l1.09,0.24l7.35,4.76z" fill="rgb(0, 0, 0)" id="svg_277" opacity="0.15"/>
  <path d="m677,747l2,4.15l7.87,9.64c0.67,1.23 1.64,2.26 2.82,3.01c1.18,0.75 2.53,1.19 3.92,1.27c3.84,0.2 7.65,0.87 11.33,2c0.26,0.08 0.54,0.09 0.81,0.03c0.27,-0.07 0.52,-0.2 0.71,-0.4c0.33,-0.34 0.52,-0.8 0.52,-1.28c0,-0.47 -0.19,-0.93 -0.52,-1.27l-0.08,-0.09c-1.23,-1.29 -2.78,-2.23 -4.49,-2.72l-4.68,-1.51c-0.61,-0.17 -0.91,-1.15 -0.87,-1.78c0.02,-0.29 0.14,-0.57 0.34,-0.79c0.2,-0.22 0.47,-0.37 0.76,-0.42l7.36,-2.06c0.45,-0.08 0.91,-0.06 1.35,0.04c0.44,0.1 0.85,0.29 1.22,0.56l3.82,2.78l3.38,8.94c0.09,0.23 0.23,0.43 0.41,0.59c0.19,0.16 0.41,0.28 0.65,0.33l0.12,0c0.38,0.08 0.78,0.01 1.11,-0.2c0.33,-0.21 0.56,-0.54 0.65,-0.92l0,0c0.04,-0.21 0.04,-0.42 0,-0.63l-2.33,-10.93l-4,-7l-15.17,-3.46c-0.98,-0.23 -2,-0.29 -3,-0.18l-16.01,2.3z" fill="rgb(252, 157, 157)" id="svg_278"/>
  <path class="change-color-in-svg" d="m612.08,747.69l-11.78,-41.69l-31.44,34.82l9.39,22.67l33.83,-15.8z" fill="rgb(43, 131, 252)" id="svg_279"/>
  <path d="m615.72,760l-6.81,2.13c-0.15,0.05 -0.31,0.05 -0.46,0.01c-0.15,-0.05 -0.28,-0.15 -0.37,-0.28c-0.09,-0.13 -0.13,-0.28 -0.13,-0.44c0.01,-0.16 0.07,-0.31 0.17,-0.43l6.43,-5.17l1.17,4.18z" fill="rgb(0, 0, 0)" id="svg_280" opacity="0.15"/>
  <path class="change-color-in-svg" d="m708.51,989.7l0,20.3c0,0.79 0.15,1.56 0.46,2.29c0.3,0.72 0.74,1.38 1.3,1.93c0.56,0.56 1.22,0.99 1.95,1.29c0.73,0.29 1.51,0.44 2.29,0.43l69,0c0.66,0 1.29,-0.27 1.76,-0.73c0.47,-0.47 0.73,-1.1 0.73,-1.76c-0.01,-2.36 -0.76,-4.66 -2.14,-6.58c-1.38,-1.91 -3.33,-3.35 -5.57,-4.1l-15.57,-5.14l-19.72,-15.33c-0.99,-0.77 -2.22,-1.18 -3.48,-1.15c-1.26,0.03 -2.47,0.49 -3.43,1.31l-8.76,7.47c-0.63,0.55 -1.38,0.92 -2.19,1.1c-0.82,0.17 -1.66,0.14 -2.46,-0.1l-11.08,-3.44c-0.35,-0.11 -0.72,-0.14 -1.08,-0.08c-0.37,0.06 -0.71,0.2 -1.01,0.42c-0.3,0.21 -0.55,0.49 -0.72,0.82c-0.17,0.32 -0.27,0.68 -0.28,1.05z" fill="rgb(43, 131, 252)" id="svg_281"/>
  <path class="change-color-in-svg" d="m714.46,1016l69,0c0.66,0 1.29,-0.27 1.76,-0.73c0.46,-0.47 0.73,-1.1 0.73,-1.76c0.02,-0.84 -0.09,-1.68 -0.33,-2.48l-77.04,0c0.24,1.39 0.96,2.64 2.04,3.55c1.07,0.91 2.43,1.41 3.84,1.42z" fill="rgb(43, 131, 252)" id="svg_282"/>
  <path d="m714.46,1016l69,0c0.66,0 1.29,-0.27 1.76,-0.73c0.46,-0.47 0.73,-1.1 0.73,-1.76c0.02,-0.84 -0.09,-1.68 -0.33,-2.48l-77.04,0c0.24,1.39 0.96,2.64 2.04,3.55c1.07,0.91 2.43,1.41 3.84,1.42z" fill="rgb(0, 0, 0)" id="svg_283" opacity="0.5"/>
  <path d="m742.56,990.42c-0.15,0 -0.29,-0.06 -0.41,-0.16c-0.11,-0.12 -0.18,-0.28 -0.18,-0.44c0,-0.16 0.07,-0.32 0.18,-0.44l4.19,-4.49c0.12,-0.12 0.28,-0.18 0.44,-0.18c0.17,0 0.32,0.06 0.44,0.18c0.12,0.12 0.18,0.27 0.18,0.44c0,0.16 -0.06,0.32 -0.18,0.44l-4.22,4.49c-0.13,0.08 -0.28,0.14 -0.44,0.16l0,0z" fill="rgb(255, 255, 255)" id="svg_284"/>
  <path d="m745.86,993c-0.15,0 -0.3,-0.06 -0.41,-0.16c-0.12,-0.12 -0.18,-0.28 -0.18,-0.44c0,-0.17 0.06,-0.32 0.18,-0.44l4.18,-4.5c0.11,-0.12 0.27,-0.18 0.44,-0.18c0.16,0 0.32,0.06 0.44,0.18c0.12,0.12 0.18,0.27 0.18,0.44c0,0.17 -0.06,0.32 -0.18,0.44l-4.18,4.5c-0.14,0.09 -0.3,0.15 -0.47,0.16z" fill="rgb(255, 255, 255)" id="svg_285"/>
  <path d="m749.14,995.57c-0.15,0 -0.29,-0.06 -0.4,-0.16c-0.11,-0.12 -0.18,-0.28 -0.18,-0.44c0,-0.17 0.07,-0.32 0.18,-0.44l4.18,-4.5c0.06,-0.06 0.13,-0.1 0.2,-0.13c0.08,-0.04 0.16,-0.05 0.24,-0.05c0.08,0 0.16,0.01 0.24,0.05c0.07,0.03 0.14,0.07 0.2,0.13c0.06,0.06 0.11,0.13 0.14,0.2c0.03,0.08 0.04,0.16 0.04,0.24c0,0.08 -0.01,0.16 -0.04,0.24c-0.03,0.07 -0.08,0.14 -0.14,0.2l-4.18,4.5c-0.06,0.06 -0.14,0.1 -0.22,0.13c-0.08,0.03 -0.17,0.04 -0.26,0.03z" fill="rgb(255, 255, 255)" id="svg_286"/>
  <path class="change-color-in-svg" d="m628.74,959l-9.9,17.74c-0.38,0.68 -0.63,1.43 -0.72,2.21c-0.09,0.77 -0.03,1.56 0.18,2.31c0.22,0.75 0.58,1.45 1.06,2.06c0.49,0.61 1.09,1.12 1.77,1.5l54.48,30.4l5.83,0.25c2.56,-0.42 3.9,-0.23 4.56,-1.42c2.35,-4.21 0.54,-6.06 -2.71,-9.63l-11.09,-12.13l-9.78,-23c-0.49,-1.16 -1.37,-2.11 -2.48,-2.7c-1.11,-0.59 -2.39,-0.78 -3.63,-0.53l-11.31,2.24c-0.81,0.17 -1.65,0.12 -2.45,-0.13c-0.79,-0.24 -1.51,-0.69 -2.08,-1.29l-8,-8.41c-0.26,-0.26 -0.57,-0.45 -0.92,-0.56c-0.34,-0.12 -0.71,-0.15 -1.07,-0.1c-0.37,0.05 -0.71,0.19 -1.01,0.39c-0.3,0.21 -0.55,0.48 -0.73,0.8z" fill="rgb(43, 131, 252)" id="svg_287"/>
  <path d="m686.75,1012.13l-8.53,-1.2l-59.79,-33.36c-0.46,1.33 -0.45,2.77 0.05,4.09c0.49,1.31 1.43,2.42 2.65,3.11l54.51,30.42l5.72,0.23c1.19,0 2.38,-0.19 3.51,-0.57c0.62,-0.27 1.12,-0.76 1.4,-1.38c0.21,-0.43 0.37,-0.88 0.48,-1.34l0,0z" fill="rgb(0, 0, 0)" id="svg_288" opacity="0.5"/>
  <path d="m658.12,976.17c-0.13,-0.08 -0.23,-0.2 -0.28,-0.34c-0.05,-0.16 -0.02,-0.33 0.06,-0.47c0.08,-0.15 0.21,-0.25 0.37,-0.3l5.84,-1.89c0.16,-0.04 0.33,-0.02 0.47,0.06c0.15,0.08 0.25,0.21 0.3,0.37c0.04,0.16 0.02,0.33 -0.06,0.47c-0.08,0.15 -0.21,0.26 -0.37,0.3l-5.83,1.89c-0.17,0.01 -0.34,-0.02 -0.5,-0.09l0,0z" fill="rgb(255, 255, 255)" id="svg_289"/>
  <path d="m659.75,980c-0.13,-0.07 -0.23,-0.2 -0.28,-0.34c-0.04,-0.16 -0.02,-0.33 0.06,-0.47c0.08,-0.14 0.21,-0.24 0.37,-0.29l5.84,-1.89c0.16,-0.04 0.33,-0.02 0.47,0.06c0.15,0.08 0.26,0.21 0.3,0.37c0.04,0.16 0.02,0.33 -0.06,0.47c-0.08,0.14 -0.21,0.25 -0.37,0.3l-5.84,1.88c-0.17,0.02 -0.34,-0.01 -0.49,-0.09z" fill="rgb(255, 255, 255)" id="svg_290"/>
  <path d="m661.36,983.86c-0.13,-0.07 -0.23,-0.19 -0.28,-0.33c-0.04,-0.16 -0.02,-0.33 0.06,-0.47c0.08,-0.15 0.21,-0.25 0.37,-0.3l5.85,-1.89c0.16,-0.04 0.33,-0.02 0.47,0.06c0.15,0.08 0.25,0.22 0.3,0.37c0.04,0.16 0.02,0.33 -0.06,0.48c-0.09,0.14 -0.22,0.25 -0.38,0.29l-5.83,1.93c-0.09,0.01 -0.18,0.01 -0.26,-0.02c-0.09,-0.02 -0.17,-0.06 -0.24,-0.12l0,0z" fill="rgb(255, 255, 255)" id="svg_291"/>
  <path d="m459.12,1015.59l27.15,-150.21c0.53,-3.57 -1.15,-5.84 2.45,-5.84l59.62,0c1.83,0.07 3.58,0.76 4.97,1.95c1.39,1.2 2.32,2.83 2.66,4.63l20.84,150.29l7.66,0l-19.67,-151.06c-0.9,-6.07 -8.85,-11 -15,-11l-62.56,0c-3.07,0.08 -6.01,1.22 -8.34,3.23c-2.32,2 -3.89,4.75 -4.42,7.77l-27.93,150.24l12.57,0z" fill="rgb(178, 182, 187)" id="svg_292"/>
  <path d="m478.86,857.6l13.78,0l0,1.93l-3.92,0c-3.48,0 -2,2.12 -2.4,5.48l-11.77,0c0.56,-2.89 2.08,-5.5 4.31,-7.41" fill="rgb(0, 0, 0)" id="svg_293" opacity="0.3"/>
  <path d="m459.12,1015.59l-4.67,0l27.78,-151.79c0.57,-2.5 1.96,-4.73 3.94,-6.36c1.97,-1.63 4.44,-2.56 7,-2.64l64.05,0c2.56,0.07 5.02,1.02 6.96,2.7c1.93,1.68 3.23,3.97 3.66,6.5l21.26,152.46l-4.63,0l-20.9,-151.83c-0.28,-1.5 -1.06,-2.86 -2.21,-3.85c-1.16,-1 -2.62,-1.57 -4.14,-1.63l-64.05,0c-1.57,0.07 -3.07,0.64 -4.28,1.64c-1.21,0.99 -2.06,2.36 -2.42,3.88l-27.35,150.92z" fill="rgb(178, 182, 187)" id="svg_294"/>
  <path d="m459.12,1015.59l-4.67,0l27.78,-151.79c0.57,-2.5 1.96,-4.73 3.94,-6.36c1.97,-1.63 4.44,-2.56 7,-2.64l64.05,0c2.56,0.07 5.02,1.02 6.96,2.7c1.93,1.68 3.23,3.97 3.66,6.5l21.26,152.46l-4.63,0l-20.9,-151.83c-0.28,-1.5 -1.06,-2.86 -2.21,-3.85c-1.16,-1 -2.62,-1.57 -4.14,-1.63l-64.05,0c-1.57,0.07 -3.07,0.64 -4.28,1.64c-1.21,0.99 -2.06,2.36 -2.42,3.88l-27.35,150.92z" fill="rgb(0, 0, 0)" id="svg_295" opacity="0.25"/>
  <path d="m467.05,858.91c-11.79,-0.78 -2.63,-27.25 -4.4,-37.85l-0.35,-2.13l4.26,-0.71l0.35,2.13c2.62,15.72 -5.21,34.24 0.14,34.24c2.5,0 6.14,-0.12 11.18,-0.27c13.22,-0.42 35.35,-1.14 75.17,-1.14l2.16,0l0,4.32l-2.16,0c-39.76,0 -61.84,0.7 -75,1.13c-5.08,0.16 -8.75,0.28 -11.32,0.28" fill="rgb(178, 182, 187)" id="svg_296"/>
  <path d="m558.09,857.49l-86.9,0c-6.9,0 -6.79,-5.78 -5,-16c2,-11 1,-18.53 0.56,-21.19l4.26,-0.71c2.56,15.39 -5.29,33.58 0.14,33.58l86.9,0l0,4.31l0.04,0.01z" fill="rgb(128, 132, 139)" id="svg_297"/>
  <path d="m663.76,862.17c-6.97,4.1 -14.91,6.27 -23,6.3l-114.76,0c-25.55,0 -52.95,-1.85 -57,-12.22c-4.05,-10.37 175.45,-6.61 175.45,-6.61c0,0 14.16,2.53 15.64,3.65c1.48,1.12 3.71,8.88 3.71,8.88" fill="rgb(134, 138, 145)" id="svg_298"/>
  <path d="m472.94,826.88l-13.76,-100.46c-0.26,-1.75 -8.91,-2.47 -8.56,-4c1.24,-5.57 6.55,-14.41 20.48,-14.41l70.21,0c4.05,0.11 7.95,1.62 11.02,4.27c3.07,2.65 5.13,6.28 5.84,10.27c0,0 15,98.83 14.4,101c-0.6,2.17 -2.57,6.69 -6.24,6.69c-3.67,0 -92.78,0.66 -92.78,0.66l-0.61,-4.02z" fill="rgb(178, 182, 187)" id="svg_299"/>
  <path d="m566,858.47l-91.6,0c-1.02,0 -2.03,-0.2 -2.98,-0.59c-0.94,-0.39 -1.8,-0.97 -2.52,-1.69c-0.72,-0.72 -1.3,-1.58 -1.69,-2.52c-0.39,-0.95 -0.59,-1.96 -0.59,-2.98c0,-1.02 0.2,-2.03 0.59,-2.98c0.39,-0.94 0.97,-1.8 1.69,-2.52c0.72,-0.72 1.58,-1.3 2.52,-1.69c0.95,-0.39 1.96,-0.59 2.98,-0.59l91.6,0c2.06,0 4.04,0.82 5.5,2.28c1.46,1.46 2.28,3.44 2.28,5.5c0,2.06 -0.82,4.04 -2.28,5.5c-1.46,1.46 -3.44,2.28 -5.5,2.28z" fill="rgb(178, 182, 187)" id="svg_300"/>
  <path d="m669.69,870.21c-1.57,0 -3.09,-0.58 -4.27,-1.61c-1.18,-1.04 -1.94,-2.47 -2.15,-4.03c-0.13,-0.61 -1.94,-7.4 -16.92,-7.4l-73.35,0c-1.66,0.03 -3.28,-0.58 -4.52,-1.69c-1.24,-1.11 -2.01,-2.65 -2.17,-4.31c-0.06,-0.89 0.07,-1.77 0.36,-2.61c0.3,-0.84 0.77,-1.6 1.38,-2.25c0.6,-0.65 1.34,-1.17 2.15,-1.52c0.82,-0.36 1.69,-0.54 2.58,-0.54l73.58,0c23.89,0 29.68,14.33 29.82,19.34c0.05,1.69 -0.56,3.33 -1.7,4.57c-1.14,1.25 -2.72,1.99 -4.41,2.09l-0.38,0l0,-0.04zm-6.48,-6.46c0,0.28 0.02,0.57 0.06,0.85c0,-0.12 0,-0.23 0,-0.35c-0.01,-0.17 -0.01,-0.33 0,-0.5l-0.06,0z" fill="rgb(178, 182, 187)" id="svg_301"/>
  <path d="m669.69,870.21c-1.57,0 -3.09,-0.58 -4.27,-1.61c-1.18,-1.04 -1.94,-2.47 -2.15,-4.03c-0.13,-0.61 -1.94,-7.4 -16.92,-7.4l-73.35,0c-1.66,0.03 -3.28,-0.58 -4.52,-1.69c-1.24,-1.11 -2.01,-2.65 -2.17,-4.31c-0.06,-0.89 0.07,-1.77 0.36,-2.61c0.3,-0.84 0.77,-1.6 1.38,-2.25c0.6,-0.65 1.34,-1.17 2.15,-1.52c0.82,-0.36 1.69,-0.54 2.58,-0.54l73.58,0c23.89,0 29.68,14.33 29.82,19.34c0.05,1.69 -0.56,3.33 -1.7,4.57c-1.14,1.25 -2.72,1.99 -4.41,2.09l-0.38,0l0,-0.04zm-6.48,-6.46c0,0.28 0.02,0.57 0.06,0.85c0,-0.12 0,-0.23 0,-0.35c-0.01,-0.17 -0.01,-0.33 0,-0.5l-0.06,0z" fill="rgb(0, 0, 0)" id="svg_302" opacity="0.15"/>
  <path d="m650.71,857.49l-86.23,0c-0.67,-0.01 -1.34,-0.15 -1.95,-0.43c-0.62,-0.27 -1.17,-0.66 -1.63,-1.16c-0.46,-0.49 -0.81,-1.07 -1.05,-1.7c-0.22,-0.63 -0.32,-1.31 -0.29,-1.98c0.12,-9.31 3.46,-14.19 0.42,-32.38l-1.22,-0.92l5,-0.71l0.35,2.13c3,18.09 -4.44,32.84 0.3,32.84l86.25,0l0.05,4.31z" fill="rgb(178, 182, 187)" id="svg_303"/>
  <path d="m653.25,858.2l-85.69,0c-10.64,0 -0.79,-18.71 -4.49,-37.8l4.35,-0.8c2.63,15.75 -3.77,34.28 1.58,34.28l84.25,0l0,4.32z" fill="rgb(128, 132, 139)" id="svg_304"/>
  <path d="m683.73,1015.59l-21.1,-156.59c-0.43,-2.53 -1.72,-4.82 -3.66,-6.49c-1.94,-1.68 -4.41,-2.62 -6.97,-2.67l-5.32,0c-0.76,-0.13 -1.53,-0.2 -2.31,-0.2l-62.35,-0.23c-3.07,0.08 -6.01,1.23 -8.34,3.23c-2.32,2 -3.88,4.75 -4.42,7.77l-21,156l12.52,0l20.86,-156.75c0.27,-1.5 1.04,-2.86 2.19,-3.85c1.15,-1 2.6,-1.57 4.12,-1.63l35.62,0l19.55,0.43c1.83,0.07 3.58,0.76 4.97,1.95c1.39,1.2 2.32,2.83 2.66,4.63l20.74,154.42l7.62,0l-0.12,-0.9l0.12,0.9l4.62,-0.02z" fill="rgb(178, 182, 187)" id="svg_305"/>
  <path d="m679.15,1015.59l-20.79,-156c-0.27,-1.5 -1.04,-2.86 -2.19,-3.85c-1.15,-1 -2.6,-1.57 -4.12,-1.63l-64.05,0c-1.52,0.06 -2.97,0.63 -4.12,1.63c-1.15,0.99 -1.92,2.35 -2.19,3.85l-20.86,156.77l-4.65,0l21.22,-157.36c0.43,-2.52 1.72,-4.81 3.65,-6.49c1.94,-1.67 4.39,-2.61 6.95,-2.67l64,0c2.56,0.05 5.02,0.99 6.97,2.67c1.94,1.67 3.23,3.96 3.66,6.49l21.1,156.56l-4.58,0.03z" fill="rgb(0, 0, 0)" id="svg_306" opacity="0.25"/>
  <path d="m468.43,826.88l-13.76,-100.46c-0.27,-1.75 -6.24,-2.47 -5.89,-4c1.24,-5.57 12.11,-10.53 18.43,-10.53l70.21,0c4.06,0.11 7.95,1.62 11.03,4.27c3.07,2.65 5.14,6.28 5.84,10.28l13.54,103.56l-4,0.94l-94.83,0l-0.57,-4.06z" fill="rgb(128, 132, 139)" id="svg_307"/>
  <path d="m467.22,711.87l70.21,0c2.71,0.07 5.37,0.76 7.77,2.03c2.4,1.27 4.47,3.07 6.05,5.28c-0.35,-0.12 -0.66,-0.34 -0.89,-0.63c-2,-2.22 -3.79,2.46 -3.79,4.24c0,1.41 -63.16,7.41 -91,9.75l-0.91,-6.12c-0.26,-1.75 -6.23,-2.47 -5.89,-4c1.24,-5.57 12.12,-10.53 18.44,-10.53" fill="rgb(128, 132, 139)" id="svg_308"/>
  <path d="m460.85,830.9l-13.77,-100.46c-0.33,-1.81 -0.25,-3.68 0.24,-5.46c0.48,-1.77 1.36,-3.42 2.56,-4.82c1.21,-1.39 2.71,-2.5 4.4,-3.24c1.69,-0.74 3.52,-1.09 5.36,-1.03l73.55,0c4.06,0.11 7.95,1.62 11.03,4.27c3.07,2.65 5.13,6.28 5.84,10.28l13.76,100.46c0,0 -21.84,5.57 -56.61,5.57c-34.77,0 -46.36,-5.57 -46.36,-5.57z" fill="rgb(178, 182, 187)" id="svg_309"/>
  <path d="m569.85,858.2l-99.78,0l1.54,1.6l97.8,0l0.44,-1.6z" fill="rgb(0, 0, 0)" id="svg_310" opacity="0.3"/>
  <path d="m922.53,650l-107.93,0l0,115.24l107.93,0l0,-115.24z" fill="rgb(63, 66, 73)" id="svg_311"/>
  <path d="m864.49,654.72l-45.85,0l0,102.62l45.85,0l0,-102.62z" fill="rgb(63, 66, 73)" id="svg_312" stroke="rgb(134, 138, 145)" stroke-miterlimit="10" stroke-width="0.55px" transform="matrix(1 0 0 1 0 0)"/>
  <path d="m922.53,650.35l-53.49,0l0,114.62l53.49,0l0,-114.62z" fill="rgb(0, 0, 0)" id="svg_313" opacity="0.3"/>
  <path d="m861.21,661.27l-39.3,0l0,4.37l39.3,0l0,-4.37z" fill="rgb(134, 138, 145)" id="svg_314"/>
  <path d="m861.21,695.66l-39.3,0l0,10.92l39.3,0l0,-10.92z" fill="rgb(63, 66, 73)" id="svg_315" stroke="rgb(134, 138, 145)" stroke-miterlimit="10" stroke-width="0.55px"/>
  <path d="m861.21,706.57l-39.3,0l0,10.92l39.3,0l0,-10.92z" fill="rgb(63, 66, 73)" id="svg_316" stroke="rgb(134, 138, 145)" stroke-miterlimit="10" stroke-width="0.55px"/>
  <path d="m826.47,668.91l-4.37,0l0,1.09l4.37,0l0,-1.09z" fill="rgb(134, 138, 145)" id="svg_317"/>
  <path d="m860.12,674.37l-37.12,0l0,0.82l37.12,0l0,-0.82z" fill="rgb(134, 138, 145)" id="svg_318"/>
  <path d="m859.02,679.01l-34.93,0l0,0.82l34.93,0l0,-0.82z" fill="rgb(134, 138, 145)" id="svg_319"/>
  <path class="change-color-in-svg" d="m841.56,743.15c1.51,0 2.73,-1.22 2.73,-2.73c0,-1.51 -1.22,-2.73 -2.73,-2.73c-1.51,0 -2.73,1.22 -2.73,2.73c0,1.51 1.22,2.73 2.73,2.73z" fill="rgb(43, 131, 252)" id="svg_320"/>
  <path d="m841.56,737.69l-0.18,0c0.69,0.04 1.34,0.34 1.82,0.85c0.47,0.5 0.73,1.17 0.73,1.86c0,0.7 -0.26,1.36 -0.73,1.87c-0.48,0.5 -1.13,0.81 -1.82,0.85l0.18,0c0.37,0.02 0.74,-0.03 1.09,-0.16c0.35,-0.13 0.67,-0.32 0.94,-0.58c0.28,-0.25 0.49,-0.56 0.64,-0.9c0.15,-0.34 0.22,-0.71 0.22,-1.09c0,-0.37 -0.07,-0.74 -0.22,-1.08c-0.15,-0.34 -0.36,-0.65 -0.64,-0.9c-0.27,-0.26 -0.59,-0.46 -0.94,-0.58c-0.35,-0.13 -0.72,-0.18 -1.09,-0.16l0,0.02z" fill="rgb(0, 0, 0)" id="svg_321" opacity="0.3"/>
  <path d="m842.11,728.95l-1.11,0c-0.28,0 -0.51,0.23 -0.51,0.51l0,4.44c0,0.28 0.23,0.51 0.51,0.51l1.11,0c0.28,0 0.51,-0.23 0.51,-0.51l0,-4.44c0,-0.28 -0.23,-0.51 -0.51,-0.51z" fill="rgb(0, 0, 0)" id="svg_322" opacity="0.4"/>
  <path d="m842.12,729l-0.34,0c0.14,0 0.27,0.05 0.36,0.15c0.1,0.09 0.15,0.23 0.15,0.36l0,4.44c0,0.14 -0.05,0.27 -0.15,0.36c-0.09,0.1 -0.22,0.15 -0.36,0.15l0.34,0c0.14,0 0.27,-0.05 0.36,-0.15c0.1,-0.09 0.15,-0.22 0.15,-0.36l0,-4.44c0,-0.13 -0.05,-0.27 -0.15,-0.36c-0.09,-0.1 -0.22,-0.15 -0.36,-0.15l0,0z" fill="rgb(0, 0, 0)" id="svg_323" opacity="0.3"/>
  <path class="change-color-in-svg" d="m402.11,541l-96.53,0c-0.49,0 -0.89,0.4 -0.89,0.89l0,73.22c0,0.49 0.4,0.89 0.89,0.89l96.53,0c0.49,0 0.89,-0.4 0.89,-0.89l0,-73.22c0,-0.49 -0.4,-0.89 -0.89,-0.89z" fill="rgb(43, 131, 252)" id="svg_324"/>
  <path d="m402.11,541l-96.53,0c-0.49,0 -0.89,0.4 -0.89,0.89l0,73.22c0,0.49 0.4,0.89 0.89,0.89l96.53,0c0.49,0 0.89,-0.4 0.89,-0.89l0,-73.22c0,-0.49 -0.4,-0.89 -0.89,-0.89z" fill="rgb(0, 0, 0)" id="svg_325" opacity="0.2"/>
  <path class="change-color-in-svg" d="m400.42,541l-96.53,0c-0.49,0 -0.89,0.4 -0.89,0.89l0,73.22c0,0.49 0.4,0.89 0.89,0.89l96.53,0c0.49,0 0.89,-0.4 0.89,-0.89l0,-73.22c0,-0.49 -0.4,-0.89 -0.89,-0.89z" fill="rgb(43, 131, 252)" id="svg_326"/>
  <path d="m400.32,552l-96.43,0l0,1l96.43,0l0,-1z" fill="rgb(255, 255, 255)" id="svg_327"/>
  <path d="m310.5,548c0.83,0 1.5,-0.67 1.5,-1.5c0,-0.83 -0.67,-1.5 -1.5,-1.5c-0.83,0 -1.5,0.67 -1.5,1.5c0,0.83 0.67,1.5 1.5,1.5z" fill="rgb(255, 255, 255)" id="svg_328"/>
  <path d="m315.5,548c0.83,0 1.5,-0.67 1.5,-1.5c0,-0.83 -0.67,-1.5 -1.5,-1.5c-0.83,0 -1.5,0.67 -1.5,1.5c0,0.83 0.67,1.5 1.5,1.5z" fill="rgb(255, 255, 255)" id="svg_329"/>
  <path d="m320.5,548c0.83,0 1.5,-0.67 1.5,-1.5c0,-0.83 -0.67,-1.5 -1.5,-1.5c-0.83,0 -1.5,0.67 -1.5,1.5c0,0.83 0.67,1.5 1.5,1.5z" fill="rgb(255, 255, 255)" id="svg_330"/>
  <path d="m327.26,590.39l0,-18.39l6,0c1.48,-0.06 2.96,0.03 4.42,0.28c1.06,0.28 2,0.91 2.64,1.8c0.76,1.04 1.13,2.3 1.07,3.58c0.04,0.99 -0.17,1.97 -0.61,2.85c-0.37,0.72 -0.91,1.34 -1.57,1.81c-0.57,0.42 -1.23,0.71 -1.92,0.87c-1.27,0.21 -2.56,0.29 -3.85,0.26l-2.44,0l0,6.94l-3.74,0zm3.74,-15.28l0,5.22l2,0c0.99,0.06 1.98,-0.04 2.93,-0.29c0.47,-0.17 0.88,-0.48 1.16,-0.9c0.29,-0.42 0.43,-0.92 0.42,-1.43c0.03,-0.61 -0.18,-1.2 -0.59,-1.66c-0.39,-0.43 -0.91,-0.71 -1.49,-0.81c-0.88,-0.11 -1.78,-0.16 -2.67,-0.13l-1.76,0z" fill="rgb(255, 255, 255)" id="svg_331"/>
  <path d="m344.41,590.39l0,-18.39l3.72,0l0,7.24l7.27,0l0,-7.24l3.72,0l0,18.39l-3.72,0l0,-8l-7.27,0l0,8l-3.72,0z" fill="rgb(255, 255, 255)" id="svg_332"/>
  <path d="m363,590.39l0,-18.39l6,0c1.48,-0.06 2.96,0.03 4.42,0.28c1.06,0.28 2,0.91 2.65,1.8c0.75,1.04 1.12,2.3 1.06,3.58c0.03,0.99 -0.18,1.97 -0.61,2.85c-0.37,0.72 -0.9,1.34 -1.56,1.81c-0.58,0.41 -1.24,0.71 -1.93,0.87c-1.27,0.21 -2.56,0.29 -3.85,0.26l-2.42,0l0,6.94l-3.76,0zm3.72,-15.28l0,5.22l2,0c0.99,0.05 1.98,-0.04 2.94,-0.29c0.47,-0.17 0.88,-0.49 1.16,-0.9c0.28,-0.42 0.43,-0.92 0.42,-1.43c0.02,-0.61 -0.19,-1.2 -0.59,-1.66c-0.39,-0.43 -0.92,-0.71 -1.5,-0.81c-0.88,-0.11 -1.78,-0.16 -2.67,-0.13l-1.76,0z" fill="rgb(255, 255, 255)" id="svg_333"/>
  <path class="change-color-in-svg" d="m1235.97,753l-111.97,0c-0.57,0 -1.03,0.46 -1.03,1.03l0,84.94c0,0.57 0.46,1.03 1.03,1.03l111.97,0c0.57,0 1.03,-0.46 1.03,-1.03l0,-84.94c0,-0.57 -0.46,-1.03 -1.03,-1.03z" fill="rgb(43, 131, 252)" id="svg_334"/>
  <path d="m1235.97,753l-111.97,0c-0.57,0 -1.03,0.46 -1.03,1.03l0,84.94c0,0.57 0.46,1.03 1.03,1.03l111.97,0c0.57,0 1.03,-0.46 1.03,-1.03l0,-84.94c0,-0.57 -0.46,-1.03 -1.03,-1.03z" fill="rgb(0, 0, 0)" id="svg_335" opacity="0.2"/>
  <path class="change-color-in-svg" d="m1234,753l-111.97,0c-0.57,0 -1.03,0.46 -1.03,1.03l0,84.94c0,0.57 0.46,1.03 1.03,1.03l111.97,0c0.57,0 1.03,-0.46 1.03,-1.03l0,-84.94c0,-0.57 -0.46,-1.03 -1.03,-1.03z" fill="rgb(43, 131, 252)" id="svg_336"/>
  <path d="m1233.9,765.76l-111.86,0l0,1.16l111.86,0l0,-1.16z" fill="rgb(255, 255, 255)" id="svg_337"/>
  <path d="m1129.7,761.12c0.96,0 1.74,-0.78 1.74,-1.74c0,-0.96 -0.78,-1.74 -1.74,-1.74c-0.96,0 -1.74,0.78 -1.74,1.74c0,0.96 0.78,1.74 1.74,1.74z" fill="rgb(255, 255, 255)" id="svg_338"/>
  <path d="m1135.5,761.12c0.96,0 1.74,-0.78 1.74,-1.74c0,-0.96 -0.78,-1.74 -1.74,-1.74c-0.96,0 -1.74,0.78 -1.74,1.74c0,0.96 0.78,1.74 1.74,1.74z" fill="rgb(255, 255, 255)" id="svg_339"/>
  <path d="m1141.3,761.12c0.96,0 1.74,-0.78 1.74,-1.74c0,-0.96 -0.78,-1.74 -1.74,-1.74c-0.96,0 -1.74,0.78 -1.74,1.74c0,0.96 0.78,1.74 1.74,1.74z" fill="rgb(255, 255, 255)" id="svg_340"/>
  <path d="m1137.88,810.7l0,-21.44l4.33,0l0,8.44l8.48,0l0,-8.44l4.31,0l0,21.44l-4.32,0l0,-9.38l-8.48,0l0,9.38l-4.32,0z" fill="rgb(255, 255, 255)" id="svg_341"/>
  <path d="m1164.31,810.7l0,-17.81l-6.31,0l0,-3.63l17,0l0,3.63l-6.34,0l0,17.81l-4.35,0z" fill="rgb(255, 255, 255)" id="svg_342"/>
  <path d="m1177.72,810.7l0,-21.44l6.47,0l3.89,14.62l3.85,-14.62l6.49,0l0,21.44l-4,0l0,-16.87l-4.26,16.87l-4.16,0l-4.24,-16.87l0,16.87l-4.04,0z" fill="rgb(255, 255, 255)" id="svg_343"/>
  <path d="m1202.83,810.7l0,-21.26l4.33,0l0,17.64l10.76,0l0,3.62l-15.09,0z" fill="rgb(255, 255, 255)" id="svg_344"/>
  <path d="m1005.19,302.62l-286.67,0l0,116.44l286.67,0l0,-116.44z" fill="rgb(0, 0, 0)" id="svg_345" opacity="0.1"/>
  <path d="m996,294.57l-286.67,0l0,116.44l286.67,0l0,-116.44z" fill="rgb(255, 255, 255)" id="svg_346"/>
  <path d="m721.62,303.25c0,0.41 -0.12,0.81 -0.35,1.15c-0.23,0.35 -0.55,0.61 -0.93,0.77c-0.38,0.16 -0.8,0.2 -1.2,0.12c-0.41,-0.08 -0.78,-0.28 -1.07,-0.57c-0.29,-0.29 -0.49,-0.66 -0.57,-1.06c-0.08,-0.41 -0.04,-0.83 0.12,-1.21c0.16,-0.38 0.42,-0.7 0.77,-0.93c0.34,-0.23 0.74,-0.35 1.15,-0.35c0.55,0 1.08,0.22 1.47,0.61c0.39,0.39 0.61,0.92 0.61,1.47l0,0z" fill="rgb(178, 182, 187)" id="svg_347"/>
  <path d="m728.75,303.25c0,0.41 -0.12,0.81 -0.35,1.15c-0.23,0.35 -0.55,0.61 -0.93,0.77c-0.38,0.16 -0.8,0.2 -1.21,0.12c-0.4,-0.08 -0.77,-0.28 -1.06,-0.57c-0.29,-0.29 -0.49,-0.66 -0.57,-1.06c-0.08,-0.41 -0.04,-0.83 0.12,-1.21c0.16,-0.38 0.42,-0.7 0.76,-0.93c0.35,-0.23 0.75,-0.35 1.16,-0.35c0.27,0 0.54,0.05 0.8,0.16c0.25,0.1 0.48,0.26 0.67,0.45c0.19,0.19 0.35,0.42 0.45,0.67c0.11,0.26 0.16,0.53 0.16,0.8l0,0z" fill="rgb(178, 182, 187)" id="svg_348"/>
  <path d="m735.78,303.25c0,0.41 -0.12,0.82 -0.35,1.17c-0.22,0.34 -0.55,0.61 -0.93,0.77c-0.39,0.16 -0.81,0.2 -1.21,0.12c-0.41,-0.08 -0.78,-0.28 -1.08,-0.57c-0.29,-0.29 -0.49,-0.67 -0.57,-1.07c-0.08,-0.41 -0.04,-0.83 0.12,-1.22c0.16,-0.38 0.43,-0.7 0.78,-0.93c0.34,-0.23 0.75,-0.35 1.16,-0.35c0.55,0 1.08,0.22 1.47,0.61c0.39,0.39 0.61,0.92 0.61,1.47l0,0z" fill="rgb(178, 182, 187)" id="svg_349"/>
  <path d="m708.76,294l0,117.59l287.82,0l0,-117.59l-287.82,0zm286.67,1.15l0,15.28l-285.52,0l0,-15.28l285.52,0zm-285.52,115.29l0,-98.86l285.52,0l0,98.86l-285.52,0z" fill="rgb(178, 182, 187)" id="svg_350"/>
  <path d="m800.38,325.76l-69.24,0l0,69.24l69.24,0l0,-69.24z" fill="rgb(178, 182, 187)" id="svg_351"/>
  <path d="m973.62,350.5l-159.16,0c-0.08,0 -0.15,-0.01 -0.22,-0.04c-0.07,-0.03 -0.14,-0.07 -0.19,-0.12c-0.06,-0.06 -0.1,-0.12 -0.13,-0.19c-0.03,-0.07 -0.04,-0.14 -0.04,-0.22c0,-0.15 0.06,-0.3 0.17,-0.41c0.11,-0.11 0.25,-0.17 0.41,-0.17l159.16,0c0.15,0 0.3,0.06 0.4,0.17c0.11,0.11 0.17,0.26 0.17,0.41c0,0.07 -0.02,0.15 -0.04,0.22c-0.03,0.07 -0.07,0.13 -0.13,0.18c-0.05,0.06 -0.11,0.1 -0.18,0.13c-0.07,0.02 -0.15,0.04 -0.22,0.04z" fill="rgb(178, 182, 187)" id="svg_352"/>
  <path d="m973.62,336.63l-159.16,0c-0.08,0.01 -0.16,0 -0.24,-0.02c-0.08,-0.02 -0.16,-0.06 -0.22,-0.12c-0.06,-0.05 -0.11,-0.12 -0.14,-0.2c-0.04,-0.07 -0.06,-0.15 -0.06,-0.24c0,-0.08 0.02,-0.16 0.06,-0.23c0.03,-0.08 0.08,-0.15 0.14,-0.2c0.06,-0.06 0.14,-0.1 0.22,-0.12c0.08,-0.02 0.16,-0.03 0.24,-0.02l159.16,0c0.14,0.02 0.27,0.09 0.36,0.19c0.09,0.11 0.15,0.24 0.15,0.38c0,0.15 -0.06,0.28 -0.15,0.39c-0.09,0.1 -0.22,0.17 -0.36,0.19z" fill="rgb(178, 182, 187)" id="svg_353"/>
  <path d="m973.62,364.38l-159.16,0c-0.08,0.01 -0.16,0 -0.24,-0.02c-0.08,-0.02 -0.16,-0.06 -0.22,-0.12c-0.06,-0.05 -0.11,-0.12 -0.14,-0.2c-0.04,-0.07 -0.06,-0.15 -0.06,-0.24c0,-0.08 0.02,-0.16 0.06,-0.23c0.03,-0.08 0.08,-0.15 0.14,-0.2c0.06,-0.06 0.14,-0.1 0.22,-0.12c0.08,-0.02 0.16,-0.03 0.24,-0.02l159.16,0c0.14,0.02 0.27,0.09 0.36,0.19c0.09,0.11 0.15,0.24 0.15,0.38c0,0.15 -0.06,0.28 -0.15,0.39c-0.09,0.1 -0.22,0.17 -0.36,0.19l0,0z" fill="rgb(178, 182, 187)" id="svg_354"/>
  <path d="m913,378.25l-98.76,0c-0.2,0 -0.36,-0.25 -0.36,-0.57c0,-0.32 0.16,-0.58 0.36,-0.58l98.76,0c0.2,0 0.36,0.26 0.36,0.58c0,0.32 -0.17,0.57 -0.36,0.57z" fill="rgb(178, 182, 187)" id="svg_355"/>
  <path d="m1073.71,848l-3.89,-1.8c-0.09,-1.52 -0.37,-3.02 -0.84,-4.47l3,-3.08l0.12,-0.13l-0.09,-0.14l-4,-6.13l-0.09,-0.14l-0.15,0.06l-4,1.49c-1.14,-1.02 -2.41,-1.88 -3.77,-2.58c0,-1.48 0,-2.91 -0.06,-4.31l0,-0.15l-0.15,0l-7.15,-1.51l-0.14,0l-0.06,0.13c-0.63,1.38 -1.23,2.67 -1.8,3.93c-1.54,0.09 -3.07,0.37 -4.54,0.85l-3.11,-3l-0.08,-0.08l-0.09,0.06l-6.11,4l-0.07,0.05l0,0.07c0.61,1.64 1.12,3 1.54,4.1c-0.79,0.89 -1.49,1.86 -2.09,2.89c-0.19,0.34 -0.33,0.61 -0.41,0.78c-0.05,0.08 -0.09,0.17 -0.12,0.27l-4.48,0l0,0.05c-0.4,1.83 -0.93,4.24 -1.56,7.14l0,0.09l0.08,0l3.93,1.84c0.08,1.55 0.36,3.07 0.83,4.55l-3,3.1l-0.09,0.09l0.07,0.11l4,6.14l0.08,0.12l0.13,-0.05l4,-1.48c1.14,1.03 2.41,1.9 3.77,2.61c0,1.34 0,2.8 0,4.3l0,0.16l0.16,0l7.14,1.54l0.17,0l0.07,-0.15l1.8,-3.9c1.53,-0.08 3.03,-0.36 4.49,-0.82l3.07,3l0.12,0.12l0.15,-0.1l6.14,-4l0.15,-0.1l-0.07,-0.17c-0.46,-1.27 -1,-2.64 -1.48,-4c1.01,-1.13 1.88,-2.39 2.58,-3.74l4.29,-0.06l0.18,0l0,-0.17c0.51,-2.42 1.02,-4.8 1.52,-7.15l0,-0.18l-0.09,-0.05zm-29,-4.49c0.79,-1.56 2.08,-2.8 3.67,-3.53c1.08,-0.5 2.27,-0.75 3.46,-0.71c1.37,0.05 2.7,0.45 3.86,1.18c0.62,0.39 1.18,0.87 1.66,1.43c0.52,0.56 0.94,1.21 1.24,1.92c0.67,1.48 0.85,3.13 0.51,4.71c-0.34,1.59 -1.18,3.02 -2.39,4.1c-0.56,0.52 -1.21,0.94 -1.91,1.25c-0.66,0.31 -1.37,0.52 -2.1,0.62c-1.35,0.19 -2.74,0.02 -4,-0.5c-1.1,-0.45 -2.09,-1.15 -2.87,-2.05c-1.15,-1.32 -1.83,-2.98 -1.92,-4.72c-0.01,-0.64 0.01,-1.28 0.07,-1.92c0.22,-0.61 0.47,-1.21 0.75,-1.8l-0.03,0.02zm-8.58,-5.43c0,0 0,-0.06 0,-0.09c-0.12,0.21 -0.25,0.4 -0.36,0.61l0.36,-0.52z" fill="rgb(178, 182, 187)" id="svg_356"/>
  <path d="m1013.28,943.67l-12.26,-4.9l1.08,-6.8c-1.51,-1.19 -2.89,-2.53 -4.12,-4l-6.77,1.25l-5.15,-12.06l5.57,-4c-0.22,-1.94 -0.24,-3.89 -0.06,-5.83l-5.51,-3.82l0.22,-0.92l4.48,-11.07l0.94,0.07l5.8,1l0.78,-0.88c1.06,-1.21 2.19,-2.35 3.4,-3.42l-1.29,-6.65l0.82,-0.47l11.07,-4.83l4.05,5.53c1.93,-0.24 3.87,-0.27 5.81,-0.1l3.86,-5.77l12.21,4.84l-1,6.78c1.5,1.19 2.88,2.53 4.12,4l6.78,-1.27l5.24,12.13l-5.56,4.06c0.22,1.9 0.25,3.82 0.08,5.72l5.69,3.9l-4.89,12.3l-6.81,-1.07c-1.19,1.5 -2.53,2.87 -4,4.1l1.26,6.78l-12.12,5.23l-4.06,-5.58c-1.9,0.22 -3.82,0.25 -5.72,0.08l-3.94,5.67zm-9.74,-6.32l8.9,3.55l3.64,-5.3l0.67,0.08c2.16,0.24 4.35,0.21 6.51,-0.09l0.67,-0.09l3.79,5.2l8.84,-3.8l-1.18,-6.33l0.53,-0.42c1.7,-1.36 3.22,-2.93 4.54,-4.66l0.41,-0.54l6.35,1l3.56,-9l-5.31,-3.63l0.07,-0.68c0.24,-2.17 0.21,-4.35 -0.09,-6.51l-0.1,-0.67l5.19,-3.79l-3.8,-8.81l-6.33,1.19l-0.42,-0.53c-1.37,-1.71 -2.94,-3.24 -4.69,-4.55l-0.55,-0.41l1,-6.34l-8.85,-3.5l-3.63,5.31l-0.67,-0.08c-2.2,-0.24 -4.42,-0.2 -6.6,0.12l-0.67,0.1l-3.78,-5.16l-8.59,3.75l1.22,6.3l-0.54,0.43c-1.3,1.1 -2.52,2.29 -3.63,3.58l-1.64,1.93l-6.15,-1l-3.49,8.62l5.25,3.64l-0.08,0.67c-0.26,2.2 -0.23,4.42 0.07,6.62l0.1,0.67l-5.21,3.77l3.74,8.73l6.31,-1.16l0.42,0.53c1.36,1.71 2.93,3.25 4.68,4.58l0.55,0.41l-1.01,6.27zm16.35,-15.5l-0.46,0c-2.09,-0.06 -4.14,-0.64 -5.95,-1.68c-1.81,-1.05 -3.33,-2.53 -4.42,-4.32c-1.5,-2.44 -2.14,-5.31 -1.81,-8.15c0.25,-2.08 1.03,-4.05 2.27,-5.74c1.71,-2.31 4.16,-3.98 6.94,-4.72c1.89,-0.52 3.87,-0.59 5.79,-0.19c2.2,0.45 4.24,1.49 5.9,3c0.9,0.79 1.68,1.72 2.29,2.75c0.67,1.06 1.17,2.23 1.47,3.45c0.66,2.57 0.5,5.27 -0.47,7.74c-0.99,2.48 -2.74,4.58 -5,6c-1.06,0.68 -2.22,1.18 -3.43,1.49c-1.02,0.26 -2.07,0.38 -3.12,0.37l0,0zm-0.09,-22.8c-0.93,0 -1.86,0.12 -2.76,0.36c-2.27,0.61 -4.26,1.97 -5.67,3.84c-1.01,1.36 -1.65,2.96 -1.86,4.64c-0.29,2.36 0.24,4.74 1.48,6.76c0.83,1.37 1.97,2.52 3.33,3.37c1.56,0.96 3.34,1.5 5.17,1.56c0.99,0.04 1.98,-0.08 2.94,-0.35c1,-0.25 1.94,-0.66 2.81,-1.22c1.85,-1.15 3.28,-2.86 4.08,-4.88c0.81,-2.02 0.95,-4.24 0.4,-6.35c-0.51,-1.96 -1.58,-3.73 -3.08,-5.09c-1.38,-1.22 -3.06,-2.07 -4.87,-2.44c-0.65,-0.13 -1.31,-0.2 -1.97,-0.2l0,0z" fill="rgb(134, 138, 145)" id="svg_357"/>
  <path clip-rule="evenodd" d="m1152.75,907.26c-0.15,-3.27 -0.74,-6.51 -1.75,-9.63l6.36,-6.47l-8.13,-12.62l-8.52,3.1c-2.41,-2.21 -5.1,-4.08 -8,-5.58l-0.09,-9.06l-14.67,-3.18l-3.83,8.22c-3.27,0.15 -6.51,0.74 -9.63,1.74l-6.47,-6.35l-12.62,8.12l3.1,8.53c-2.21,2.41 -4.08,5.1 -5.58,8l-9.07,0.09l-3.17,14.67l8.22,3.83c0.15,3.27 0.74,6.51 1.74,9.63l-6.35,6.47l8.12,12.62l8.53,-3.1c2.41,2.21 5.1,4.08 8,5.58l0.06,9.13l14.67,3.18l3.83,-8.22c3.27,-0.15 6.51,-0.74 9.62,-1.75l6.48,6.36l12.62,-8.12l-3.1,-8.53c2.21,-2.41 4.08,-5.1 5.58,-8l9.06,-0.09l3.18,-14.67l-8.19,-3.9zm-21.06,4.47c-0.67,3.11 -2.26,5.96 -4.55,8.18c-2.29,2.21 -5.18,3.7 -8.32,4.26c-3.14,0.57 -6.37,0.2 -9.29,-1.07c-2.93,-1.27 -5.41,-3.38 -7.13,-6.06c-1.73,-2.67 -2.62,-5.81 -2.56,-8.99c0.05,-3.19 1.05,-6.29 2.86,-8.9c1.82,-2.62 4.37,-4.64 7.34,-5.81c2.96,-1.17 6.21,-1.43 9.32,-0.76c4.17,0.91 7.82,3.43 10.13,7.02c2.31,3.59 3.1,7.96 2.2,12.13l0,0z" fill="rgb(178, 182, 187)" fill-rule="evenodd" id="svg_358"/>
 </g>
</svg>